ISO-10303-21;
HEADER;
/* Generated by software containing ST-Developer
 * from STEP Tools, Inc. (www.steptools.com) 
 */

FILE_DESCRIPTION(
/* description */ (''),
/* implementation_level */ '2;1');

FILE_NAME(
/* name */ 'V-file.step',
/* time_stamp */ '2026-02-21T19:11:10+05:30',
/* author */ (''),
/* organization */ (''),
/* preprocessor_version */ 'ST-DEVELOPER v20.1',
/* originating_system */ 'Autodesk Translation Framework v14.24.0.0',
/* authorisation */ '');

FILE_SCHEMA (('AUTOMOTIVE_DESIGN { 1 0 10303 214 3 1 1 }'));
ENDSEC;

DATA;
#10=MECHANICAL_DESIGN_GEOMETRIC_PRESENTATION_REPRESENTATION('',(#13,#14,
#15,#16),#1464);
#11=SHAPE_REPRESENTATION_RELATIONSHIP('SRR','None',#1471,#12);
#12=ADVANCED_BREP_SHAPE_REPRESENTATION('',(#17,#18,#19,#20),#1463);
#13=STYLED_ITEM('',(#1480),#17);
#14=STYLED_ITEM('',(#1480),#18);
#15=STYLED_ITEM('',(#1480),#19);
#16=STYLED_ITEM('',(#1480),#20);
#17=MANIFOLD_SOLID_BREP('Body47',#905);
#18=MANIFOLD_SOLID_BREP('Body55',#906);
#19=MANIFOLD_SOLID_BREP('Body57',#907);
#20=MANIFOLD_SOLID_BREP('Body56',#908);
#21=FACE_OUTER_BOUND('',#81,.T.);
#22=FACE_OUTER_BOUND('',#82,.T.);
#23=FACE_OUTER_BOUND('',#83,.T.);
#24=FACE_OUTER_BOUND('',#84,.T.);
#25=FACE_OUTER_BOUND('',#85,.T.);
#26=FACE_OUTER_BOUND('',#86,.T.);
#27=FACE_OUTER_BOUND('',#87,.T.);
#28=FACE_OUTER_BOUND('',#88,.T.);
#29=FACE_OUTER_BOUND('',#89,.T.);
#30=FACE_OUTER_BOUND('',#90,.T.);
#31=FACE_OUTER_BOUND('',#91,.T.);
#32=FACE_OUTER_BOUND('',#92,.T.);
#33=FACE_OUTER_BOUND('',#93,.T.);
#34=FACE_OUTER_BOUND('',#94,.T.);
#35=FACE_OUTER_BOUND('',#95,.T.);
#36=FACE_OUTER_BOUND('',#96,.T.);
#37=FACE_OUTER_BOUND('',#97,.T.);
#38=FACE_OUTER_BOUND('',#98,.T.);
#39=FACE_OUTER_BOUND('',#99,.T.);
#40=FACE_OUTER_BOUND('',#100,.T.);
#41=FACE_OUTER_BOUND('',#101,.T.);
#42=FACE_OUTER_BOUND('',#102,.T.);
#43=FACE_OUTER_BOUND('',#103,.T.);
#44=FACE_OUTER_BOUND('',#104,.T.);
#45=FACE_OUTER_BOUND('',#105,.T.);
#46=FACE_OUTER_BOUND('',#106,.T.);
#47=FACE_OUTER_BOUND('',#107,.T.);
#48=FACE_OUTER_BOUND('',#108,.T.);
#49=FACE_OUTER_BOUND('',#109,.T.);
#50=FACE_OUTER_BOUND('',#110,.T.);
#51=FACE_OUTER_BOUND('',#111,.T.);
#52=FACE_OUTER_BOUND('',#112,.T.);
#53=FACE_OUTER_BOUND('',#113,.T.);
#54=FACE_OUTER_BOUND('',#114,.T.);
#55=FACE_OUTER_BOUND('',#115,.T.);
#56=FACE_OUTER_BOUND('',#116,.T.);
#57=FACE_OUTER_BOUND('',#117,.T.);
#58=FACE_OUTER_BOUND('',#118,.T.);
#59=FACE_OUTER_BOUND('',#119,.T.);
#60=FACE_OUTER_BOUND('',#120,.T.);
#61=FACE_OUTER_BOUND('',#121,.T.);
#62=FACE_OUTER_BOUND('',#122,.T.);
#63=FACE_OUTER_BOUND('',#123,.T.);
#64=FACE_OUTER_BOUND('',#124,.T.);
#65=FACE_OUTER_BOUND('',#125,.T.);
#66=FACE_OUTER_BOUND('',#126,.T.);
#67=FACE_OUTER_BOUND('',#127,.T.);
#68=FACE_OUTER_BOUND('',#128,.T.);
#69=FACE_OUTER_BOUND('',#129,.T.);
#70=FACE_OUTER_BOUND('',#130,.T.);
#71=FACE_OUTER_BOUND('',#131,.T.);
#72=FACE_OUTER_BOUND('',#132,.T.);
#73=FACE_OUTER_BOUND('',#133,.T.);
#74=FACE_OUTER_BOUND('',#134,.T.);
#75=FACE_OUTER_BOUND('',#135,.T.);
#76=FACE_OUTER_BOUND('',#136,.T.);
#77=FACE_OUTER_BOUND('',#137,.T.);
#78=FACE_OUTER_BOUND('',#138,.T.);
#79=FACE_OUTER_BOUND('',#139,.T.);
#80=FACE_OUTER_BOUND('',#140,.T.);
#81=EDGE_LOOP('',(#553,#554,#555));
#82=EDGE_LOOP('',(#556,#557,#558,#559,#560));
#83=EDGE_LOOP('',(#561,#562,#563));
#84=EDGE_LOOP('',(#564,#565,#566));
#85=EDGE_LOOP('',(#567,#568,#569,#570));
#86=EDGE_LOOP('',(#571,#572,#573,#574));
#87=EDGE_LOOP('',(#575,#576,#577,#578));
#88=EDGE_LOOP('',(#579,#580,#581,#582));
#89=EDGE_LOOP('',(#583,#584,#585,#586));
#90=EDGE_LOOP('',(#587,#588,#589,#590));
#91=EDGE_LOOP('',(#591,#592,#593,#594));
#92=EDGE_LOOP('',(#595,#596,#597,#598));
#93=EDGE_LOOP('',(#599,#600,#601,#602,#603));
#94=EDGE_LOOP('',(#604,#605,#606));
#95=EDGE_LOOP('',(#607,#608,#609,#610));
#96=EDGE_LOOP('',(#611,#612,#613));
#97=EDGE_LOOP('',(#614,#615,#616,#617));
#98=EDGE_LOOP('',(#618,#619,#620,#621));
#99=EDGE_LOOP('',(#622,#623,#624,#625));
#100=EDGE_LOOP('',(#626,#627,#628,#629));
#101=EDGE_LOOP('',(#630,#631,#632,#633));
#102=EDGE_LOOP('',(#634,#635,#636,#637));
#103=EDGE_LOOP('',(#638,#639,#640,#641));
#104=EDGE_LOOP('',(#642,#643,#644));
#105=EDGE_LOOP('',(#645,#646,#647));
#106=EDGE_LOOP('',(#648,#649,#650,#651,#652));
#107=EDGE_LOOP('',(#653,#654,#655));
#108=EDGE_LOOP('',(#656,#657,#658));
#109=EDGE_LOOP('',(#659,#660,#661,#662));
#110=EDGE_LOOP('',(#663,#664,#665,#666));
#111=EDGE_LOOP('',(#667,#668,#669,#670));
#112=EDGE_LOOP('',(#671,#672,#673,#674));
#113=EDGE_LOOP('',(#675,#676,#677,#678));
#114=EDGE_LOOP('',(#679,#680,#681,#682));
#115=EDGE_LOOP('',(#683,#684,#685,#686));
#116=EDGE_LOOP('',(#687,#688,#689,#690));
#117=EDGE_LOOP('',(#691,#692,#693,#694,#695));
#118=EDGE_LOOP('',(#696,#697,#698));
#119=EDGE_LOOP('',(#699,#700,#701,#702));
#120=EDGE_LOOP('',(#703,#704,#705));
#121=EDGE_LOOP('',(#706,#707,#708,#709));
#122=EDGE_LOOP('',(#710,#711,#712,#713));
#123=EDGE_LOOP('',(#714,#715,#716,#717));
#124=EDGE_LOOP('',(#718,#719,#720,#721));
#125=EDGE_LOOP('',(#722,#723,#724,#725));
#126=EDGE_LOOP('',(#726,#727,#728,#729));
#127=EDGE_LOOP('',(#730,#731,#732,#733));
#128=EDGE_LOOP('',(#734,#735,#736));
#129=EDGE_LOOP('',(#737,#738,#739,#740));
#130=EDGE_LOOP('',(#741,#742,#743,#744));
#131=EDGE_LOOP('',(#745,#746,#747,#748));
#132=EDGE_LOOP('',(#749,#750,#751,#752));
#133=EDGE_LOOP('',(#753,#754,#755,#756));
#134=EDGE_LOOP('',(#757,#758,#759,#760));
#135=EDGE_LOOP('',(#761,#762,#763,#764));
#136=EDGE_LOOP('',(#765,#766,#767,#768));
#137=EDGE_LOOP('',(#769,#770,#771,#772));
#138=EDGE_LOOP('',(#773,#774,#775,#776));
#139=EDGE_LOOP('',(#777,#778,#779,#780));
#140=EDGE_LOOP('',(#781,#782,#783,#784));
#141=LINE('',#1224,#257);
#142=LINE('',#1226,#258);
#143=LINE('',#1227,#259);
#144=LINE('',#1230,#260);
#145=LINE('',#1231,#261);
#146=LINE('',#1233,#262);
#147=LINE('',#1235,#263);
#148=LINE('',#1236,#264);
#149=LINE('',#1239,#265);
#150=LINE('',#1240,#266);
#151=LINE('',#1242,#267);
#152=LINE('',#1245,#268);
#153=LINE('',#1247,#269);
#154=LINE('',#1248,#270);
#155=LINE('',#1251,#271);
#156=LINE('',#1253,#272);
#157=LINE('',#1254,#273);
#158=LINE('',#1257,#274);
#159=LINE('',#1259,#275);
#160=LINE('',#1260,#276);
#161=LINE('',#1263,#277);
#162=LINE('',#1265,#278);
#163=LINE('',#1266,#279);
#164=LINE('',#1268,#280);
#165=LINE('',#1269,#281);
#166=LINE('',#1271,#282);
#167=LINE('',#1273,#283);
#168=LINE('',#1277,#284);
#169=LINE('',#1279,#285);
#170=LINE('',#1280,#286);
#171=LINE('',#1283,#287);
#172=LINE('',#1284,#288);
#173=LINE('',#1287,#289);
#174=LINE('',#1288,#290);
#175=LINE('',#1290,#291);
#176=LINE('',#1293,#292);
#177=LINE('',#1294,#293);
#178=LINE('',#1297,#294);
#179=LINE('',#1299,#295);
#180=LINE('',#1300,#296);
#181=LINE('',#1303,#297);
#182=LINE('',#1305,#298);
#183=LINE('',#1306,#299);
#184=LINE('',#1307,#300);
#185=LINE('',#1310,#301);
#186=LINE('',#1312,#302);
#187=LINE('',#1318,#303);
#188=LINE('',#1320,#304);
#189=LINE('',#1321,#305);
#190=LINE('',#1324,#306);
#191=LINE('',#1326,#307);
#192=LINE('',#1328,#308);
#193=LINE('',#1329,#309);
#194=LINE('',#1330,#310);
#195=LINE('',#1333,#311);
#196=LINE('',#1334,#312);
#197=LINE('',#1336,#313);
#198=LINE('',#1339,#314);
#199=LINE('',#1341,#315);
#200=LINE('',#1342,#316);
#201=LINE('',#1345,#317);
#202=LINE('',#1347,#318);
#203=LINE('',#1348,#319);
#204=LINE('',#1351,#320);
#205=LINE('',#1353,#321);
#206=LINE('',#1354,#322);
#207=LINE('',#1357,#323);
#208=LINE('',#1359,#324);
#209=LINE('',#1360,#325);
#210=LINE('',#1362,#326);
#211=LINE('',#1363,#327);
#212=LINE('',#1365,#328);
#213=LINE('',#1367,#329);
#214=LINE('',#1371,#330);
#215=LINE('',#1373,#331);
#216=LINE('',#1374,#332);
#217=LINE('',#1377,#333);
#218=LINE('',#1378,#334);
#219=LINE('',#1381,#335);
#220=LINE('',#1382,#336);
#221=LINE('',#1384,#337);
#222=LINE('',#1387,#338);
#223=LINE('',#1388,#339);
#224=LINE('',#1391,#340);
#225=LINE('',#1393,#341);
#226=LINE('',#1394,#342);
#227=LINE('',#1397,#343);
#228=LINE('',#1398,#344);
#229=LINE('',#1400,#345);
#230=LINE('',#1401,#346);
#231=LINE('',#1404,#347);
#232=LINE('',#1406,#348);
#233=LINE('',#1412,#349);
#234=LINE('',#1414,#350);
#235=LINE('',#1416,#351);
#236=LINE('',#1417,#352);
#237=LINE('',#1421,#353);
#238=LINE('',#1423,#354);
#239=LINE('',#1425,#355);
#240=LINE('',#1426,#356);
#241=LINE('',#1428,#357);
#242=LINE('',#1429,#358);
#243=LINE('',#1431,#359);
#244=LINE('',#1433,#360);
#245=LINE('',#1438,#361);
#246=LINE('',#1440,#362);
#247=LINE('',#1442,#363);
#248=LINE('',#1443,#364);
#249=LINE('',#1447,#365);
#250=LINE('',#1449,#366);
#251=LINE('',#1451,#367);
#252=LINE('',#1452,#368);
#253=LINE('',#1454,#369);
#254=LINE('',#1455,#370);
#255=LINE('',#1457,#371);
#256=LINE('',#1459,#372);
#257=VECTOR('',#986,10.);
#258=VECTOR('',#987,10.);
#259=VECTOR('',#988,10.);
#260=VECTOR('',#991,10.);
#261=VECTOR('',#992,10.);
#262=VECTOR('',#993,10.);
#263=VECTOR('',#994,10.);
#264=VECTOR('',#995,10.);
#265=VECTOR('',#998,10.);
#266=VECTOR('',#999,10.);
#267=VECTOR('',#1002,10.);
#268=VECTOR('',#1005,10.);
#269=VECTOR('',#1006,10.);
#270=VECTOR('',#1007,10.);
#271=VECTOR('',#1010,10.);
#272=VECTOR('',#1011,10.);
#273=VECTOR('',#1012,10.);
#274=VECTOR('',#1015,10.);
#275=VECTOR('',#1016,10.);
#276=VECTOR('',#1017,10.);
#277=VECTOR('',#1020,10.);
#278=VECTOR('',#1021,10.);
#279=VECTOR('',#1022,10.);
#280=VECTOR('',#1025,10.);
#281=VECTOR('',#1026,10.);
#282=VECTOR('',#1029,10.);
#283=VECTOR('',#1032,10.);
#284=VECTOR('',#1037,10.);
#285=VECTOR('',#1038,10.);
#286=VECTOR('',#1039,10.);
#287=VECTOR('',#1042,10.);
#288=VECTOR('',#1043,10.);
#289=VECTOR('',#1046,10.);
#290=VECTOR('',#1047,10.);
#291=VECTOR('',#1050,10.);
#292=VECTOR('',#1053,10.);
#293=VECTOR('',#1054,10.);
#294=VECTOR('',#1057,10.);
#295=VECTOR('',#1058,10.);
#296=VECTOR('',#1059,10.);
#297=VECTOR('',#1062,10.);
#298=VECTOR('',#1063,10.);
#299=VECTOR('',#1064,10.);
#300=VECTOR('',#1065,10.);
#301=VECTOR('',#1070,10.);
#302=VECTOR('',#1073,10.);
#303=VECTOR('',#1080,10.);
#304=VECTOR('',#1081,10.);
#305=VECTOR('',#1082,10.);
#306=VECTOR('',#1085,10.);
#307=VECTOR('',#1086,10.);
#308=VECTOR('',#1087,10.);
#309=VECTOR('',#1088,10.);
#310=VECTOR('',#1089,10.);
#311=VECTOR('',#1092,10.);
#312=VECTOR('',#1093,10.);
#313=VECTOR('',#1096,10.);
#314=VECTOR('',#1099,10.);
#315=VECTOR('',#1100,10.);
#316=VECTOR('',#1101,10.);
#317=VECTOR('',#1104,10.);
#318=VECTOR('',#1105,10.);
#319=VECTOR('',#1106,10.);
#320=VECTOR('',#1109,10.);
#321=VECTOR('',#1110,10.);
#322=VECTOR('',#1111,10.);
#323=VECTOR('',#1114,10.);
#324=VECTOR('',#1115,10.);
#325=VECTOR('',#1116,10.);
#326=VECTOR('',#1119,10.);
#327=VECTOR('',#1120,10.);
#328=VECTOR('',#1123,10.);
#329=VECTOR('',#1126,10.);
#330=VECTOR('',#1131,10.);
#331=VECTOR('',#1132,10.);
#332=VECTOR('',#1133,10.);
#333=VECTOR('',#1136,10.);
#334=VECTOR('',#1137,10.);
#335=VECTOR('',#1140,10.);
#336=VECTOR('',#1141,10.);
#337=VECTOR('',#1144,10.);
#338=VECTOR('',#1147,10.);
#339=VECTOR('',#1148,10.);
#340=VECTOR('',#1151,10.);
#341=VECTOR('',#1152,10.);
#342=VECTOR('',#1153,10.);
#343=VECTOR('',#1156,10.);
#344=VECTOR('',#1157,10.);
#345=VECTOR('',#1158,10.);
#346=VECTOR('',#1159,10.);
#347=VECTOR('',#1164,10.);
#348=VECTOR('',#1167,10.);
#349=VECTOR('',#1174,10.);
#350=VECTOR('',#1175,10.);
#351=VECTOR('',#1176,10.);
#352=VECTOR('',#1177,10.);
#353=VECTOR('',#1180,10.);
#354=VECTOR('',#1181,10.);
#355=VECTOR('',#1182,10.);
#356=VECTOR('',#1183,10.);
#357=VECTOR('',#1186,10.);
#358=VECTOR('',#1187,10.);
#359=VECTOR('',#1190,10.);
#360=VECTOR('',#1193,10.);
#361=VECTOR('',#1198,10.);
#362=VECTOR('',#1199,10.);
#363=VECTOR('',#1200,10.);
#364=VECTOR('',#1201,10.);
#365=VECTOR('',#1204,10.);
#366=VECTOR('',#1205,10.);
#367=VECTOR('',#1206,10.);
#368=VECTOR('',#1207,10.);
#369=VECTOR('',#1210,10.);
#370=VECTOR('',#1211,10.);
#371=VECTOR('',#1214,10.);
#372=VECTOR('',#1217,10.);
#373=VERTEX_POINT('',#1222);
#374=VERTEX_POINT('',#1223);
#375=VERTEX_POINT('',#1225);
#376=VERTEX_POINT('',#1229);
#377=VERTEX_POINT('',#1232);
#378=VERTEX_POINT('',#1234);
#379=VERTEX_POINT('',#1238);
#380=VERTEX_POINT('',#1244);
#381=VERTEX_POINT('',#1246);
#382=VERTEX_POINT('',#1250);
#383=VERTEX_POINT('',#1252);
#384=VERTEX_POINT('',#1256);
#385=VERTEX_POINT('',#1258);
#386=VERTEX_POINT('',#1262);
#387=VERTEX_POINT('',#1264);
#388=VERTEX_POINT('',#1276);
#389=VERTEX_POINT('',#1278);
#390=VERTEX_POINT('',#1282);
#391=VERTEX_POINT('',#1286);
#392=VERTEX_POINT('',#1292);
#393=VERTEX_POINT('',#1296);
#394=VERTEX_POINT('',#1298);
#395=VERTEX_POINT('',#1302);
#396=VERTEX_POINT('',#1304);
#397=VERTEX_POINT('',#1316);
#398=VERTEX_POINT('',#1317);
#399=VERTEX_POINT('',#1319);
#400=VERTEX_POINT('',#1323);
#401=VERTEX_POINT('',#1325);
#402=VERTEX_POINT('',#1327);
#403=VERTEX_POINT('',#1332);
#404=VERTEX_POINT('',#1338);
#405=VERTEX_POINT('',#1340);
#406=VERTEX_POINT('',#1344);
#407=VERTEX_POINT('',#1346);
#408=VERTEX_POINT('',#1350);
#409=VERTEX_POINT('',#1352);
#410=VERTEX_POINT('',#1356);
#411=VERTEX_POINT('',#1358);
#412=VERTEX_POINT('',#1370);
#413=VERTEX_POINT('',#1372);
#414=VERTEX_POINT('',#1376);
#415=VERTEX_POINT('',#1380);
#416=VERTEX_POINT('',#1386);
#417=VERTEX_POINT('',#1390);
#418=VERTEX_POINT('',#1392);
#419=VERTEX_POINT('',#1396);
#420=VERTEX_POINT('',#1399);
#421=VERTEX_POINT('',#1410);
#422=VERTEX_POINT('',#1411);
#423=VERTEX_POINT('',#1413);
#424=VERTEX_POINT('',#1415);
#425=VERTEX_POINT('',#1419);
#426=VERTEX_POINT('',#1420);
#427=VERTEX_POINT('',#1422);
#428=VERTEX_POINT('',#1424);
#429=VERTEX_POINT('',#1436);
#430=VERTEX_POINT('',#1437);
#431=VERTEX_POINT('',#1439);
#432=VERTEX_POINT('',#1441);
#433=VERTEX_POINT('',#1445);
#434=VERTEX_POINT('',#1446);
#435=VERTEX_POINT('',#1448);
#436=VERTEX_POINT('',#1450);
#437=EDGE_CURVE('',#373,#374,#141,.T.);
#438=EDGE_CURVE('',#375,#373,#142,.T.);
#439=EDGE_CURVE('',#374,#375,#143,.T.);
#440=EDGE_CURVE('',#376,#373,#144,.T.);
#441=EDGE_CURVE('',#374,#376,#145,.T.);
#442=EDGE_CURVE('',#374,#377,#146,.T.);
#443=EDGE_CURVE('',#377,#378,#147,.T.);
#444=EDGE_CURVE('',#373,#378,#148,.T.);
#445=EDGE_CURVE('',#379,#373,#149,.T.);
#446=EDGE_CURVE('',#375,#379,#150,.T.);
#447=EDGE_CURVE('',#374,#379,#151,.T.);
#448=EDGE_CURVE('',#373,#380,#152,.T.);
#449=EDGE_CURVE('',#378,#381,#153,.T.);
#450=EDGE_CURVE('',#380,#381,#154,.T.);
#451=EDGE_CURVE('',#378,#382,#155,.T.);
#452=EDGE_CURVE('',#382,#383,#156,.T.);
#453=EDGE_CURVE('',#381,#383,#157,.T.);
#454=EDGE_CURVE('',#374,#384,#158,.T.);
#455=EDGE_CURVE('',#384,#385,#159,.T.);
#456=EDGE_CURVE('',#377,#385,#160,.T.);
#457=EDGE_CURVE('',#377,#386,#161,.T.);
#458=EDGE_CURVE('',#385,#387,#162,.T.);
#459=EDGE_CURVE('',#386,#387,#163,.T.);
#460=EDGE_CURVE('',#380,#384,#164,.T.);
#461=EDGE_CURVE('',#385,#381,#165,.T.);
#462=EDGE_CURVE('',#386,#382,#166,.T.);
#463=EDGE_CURVE('',#387,#383,#167,.T.);
#464=EDGE_CURVE('',#388,#373,#168,.T.);
#465=EDGE_CURVE('',#389,#388,#169,.T.);
#466=EDGE_CURVE('',#389,#374,#170,.T.);
#467=EDGE_CURVE('',#374,#390,#171,.T.);
#468=EDGE_CURVE('',#373,#390,#172,.T.);
#469=EDGE_CURVE('',#391,#380,#173,.T.);
#470=EDGE_CURVE('',#388,#391,#174,.T.);
#471=EDGE_CURVE('',#390,#376,#175,.T.);
#472=EDGE_CURVE('',#392,#384,#176,.T.);
#473=EDGE_CURVE('',#392,#391,#177,.T.);
#474=EDGE_CURVE('',#393,#388,#178,.T.);
#475=EDGE_CURVE('',#394,#391,#179,.T.);
#476=EDGE_CURVE('',#393,#394,#180,.T.);
#477=EDGE_CURVE('',#395,#389,#181,.T.);
#478=EDGE_CURVE('',#395,#396,#182,.T.);
#479=EDGE_CURVE('',#396,#392,#183,.T.);
#480=EDGE_CURVE('',#389,#392,#184,.T.);
#481=EDGE_CURVE('',#395,#393,#185,.T.);
#482=EDGE_CURVE('',#396,#394,#186,.T.);
#483=EDGE_CURVE('',#397,#398,#187,.T.);
#484=EDGE_CURVE('',#398,#399,#188,.T.);
#485=EDGE_CURVE('',#399,#397,#189,.T.);
#486=EDGE_CURVE('',#400,#397,#190,.T.);
#487=EDGE_CURVE('',#397,#401,#191,.T.);
#488=EDGE_CURVE('',#402,#401,#192,.T.);
#489=EDGE_CURVE('',#398,#402,#193,.T.);
#490=EDGE_CURVE('',#398,#400,#194,.T.);
#491=EDGE_CURVE('',#403,#397,#195,.T.);
#492=EDGE_CURVE('',#399,#403,#196,.T.);
#493=EDGE_CURVE('',#398,#403,#197,.T.);
#494=EDGE_CURVE('',#397,#404,#198,.T.);
#495=EDGE_CURVE('',#404,#405,#199,.T.);
#496=EDGE_CURVE('',#401,#405,#200,.T.);
#497=EDGE_CURVE('',#401,#406,#201,.T.);
#498=EDGE_CURVE('',#405,#407,#202,.T.);
#499=EDGE_CURVE('',#406,#407,#203,.T.);
#500=EDGE_CURVE('',#402,#408,#204,.T.);
#501=EDGE_CURVE('',#409,#408,#205,.T.);
#502=EDGE_CURVE('',#398,#409,#206,.T.);
#503=EDGE_CURVE('',#402,#410,#207,.T.);
#504=EDGE_CURVE('',#410,#411,#208,.T.);
#505=EDGE_CURVE('',#408,#411,#209,.T.);
#506=EDGE_CURVE('',#404,#409,#210,.T.);
#507=EDGE_CURVE('',#408,#405,#211,.T.);
#508=EDGE_CURVE('',#410,#406,#212,.T.);
#509=EDGE_CURVE('',#411,#407,#213,.T.);
#510=EDGE_CURVE('',#412,#398,#214,.T.);
#511=EDGE_CURVE('',#412,#413,#215,.T.);
#512=EDGE_CURVE('',#413,#397,#216,.T.);
#513=EDGE_CURVE('',#397,#414,#217,.T.);
#514=EDGE_CURVE('',#398,#414,#218,.T.);
#515=EDGE_CURVE('',#413,#415,#219,.T.);
#516=EDGE_CURVE('',#415,#404,#220,.T.);
#517=EDGE_CURVE('',#414,#400,#221,.T.);
#518=EDGE_CURVE('',#416,#415,#222,.T.);
#519=EDGE_CURVE('',#416,#409,#223,.T.);
#520=EDGE_CURVE('',#417,#413,#224,.T.);
#521=EDGE_CURVE('',#417,#418,#225,.T.);
#522=EDGE_CURVE('',#418,#415,#226,.T.);
#523=EDGE_CURVE('',#419,#412,#227,.T.);
#524=EDGE_CURVE('',#412,#416,#228,.T.);
#525=EDGE_CURVE('',#420,#416,#229,.T.);
#526=EDGE_CURVE('',#419,#420,#230,.T.);
#527=EDGE_CURVE('',#419,#417,#231,.T.);
#528=EDGE_CURVE('',#420,#418,#232,.T.);
#529=EDGE_CURVE('',#421,#422,#233,.T.);
#530=EDGE_CURVE('',#423,#421,#234,.T.);
#531=EDGE_CURVE('',#424,#423,#235,.T.);
#532=EDGE_CURVE('',#422,#424,#236,.T.);
#533=EDGE_CURVE('',#425,#426,#237,.T.);
#534=EDGE_CURVE('',#426,#427,#238,.T.);
#535=EDGE_CURVE('',#427,#428,#239,.T.);
#536=EDGE_CURVE('',#428,#425,#240,.T.);
#537=EDGE_CURVE('',#425,#421,#241,.T.);
#538=EDGE_CURVE('',#426,#422,#242,.T.);
#539=EDGE_CURVE('',#427,#424,#243,.T.);
#540=EDGE_CURVE('',#428,#423,#244,.T.);
#541=EDGE_CURVE('',#429,#430,#245,.T.);
#542=EDGE_CURVE('',#431,#429,#246,.T.);
#543=EDGE_CURVE('',#432,#431,#247,.T.);
#544=EDGE_CURVE('',#430,#432,#248,.T.);
#545=EDGE_CURVE('',#433,#434,#249,.T.);
#546=EDGE_CURVE('',#434,#435,#250,.T.);
#547=EDGE_CURVE('',#435,#436,#251,.T.);
#548=EDGE_CURVE('',#436,#433,#252,.T.);
#549=EDGE_CURVE('',#433,#429,#253,.T.);
#550=EDGE_CURVE('',#434,#430,#254,.T.);
#551=EDGE_CURVE('',#435,#432,#255,.T.);
#552=EDGE_CURVE('',#436,#431,#256,.T.);
#553=ORIENTED_EDGE('',*,*,#437,.F.);
#554=ORIENTED_EDGE('',*,*,#438,.F.);
#555=ORIENTED_EDGE('',*,*,#439,.F.);
#556=ORIENTED_EDGE('',*,*,#440,.F.);
#557=ORIENTED_EDGE('',*,*,#441,.F.);
#558=ORIENTED_EDGE('',*,*,#442,.T.);
#559=ORIENTED_EDGE('',*,*,#443,.T.);
#560=ORIENTED_EDGE('',*,*,#444,.F.);
#561=ORIENTED_EDGE('',*,*,#445,.F.);
#562=ORIENTED_EDGE('',*,*,#446,.F.);
#563=ORIENTED_EDGE('',*,*,#438,.T.);
#564=ORIENTED_EDGE('',*,*,#447,.F.);
#565=ORIENTED_EDGE('',*,*,#439,.T.);
#566=ORIENTED_EDGE('',*,*,#446,.T.);
#567=ORIENTED_EDGE('',*,*,#448,.F.);
#568=ORIENTED_EDGE('',*,*,#444,.T.);
#569=ORIENTED_EDGE('',*,*,#449,.T.);
#570=ORIENTED_EDGE('',*,*,#450,.F.);
#571=ORIENTED_EDGE('',*,*,#451,.T.);
#572=ORIENTED_EDGE('',*,*,#452,.T.);
#573=ORIENTED_EDGE('',*,*,#453,.F.);
#574=ORIENTED_EDGE('',*,*,#449,.F.);
#575=ORIENTED_EDGE('',*,*,#442,.F.);
#576=ORIENTED_EDGE('',*,*,#454,.T.);
#577=ORIENTED_EDGE('',*,*,#455,.T.);
#578=ORIENTED_EDGE('',*,*,#456,.F.);
#579=ORIENTED_EDGE('',*,*,#457,.F.);
#580=ORIENTED_EDGE('',*,*,#456,.T.);
#581=ORIENTED_EDGE('',*,*,#458,.T.);
#582=ORIENTED_EDGE('',*,*,#459,.F.);
#583=ORIENTED_EDGE('',*,*,#460,.F.);
#584=ORIENTED_EDGE('',*,*,#450,.T.);
#585=ORIENTED_EDGE('',*,*,#461,.F.);
#586=ORIENTED_EDGE('',*,*,#455,.F.);
#587=ORIENTED_EDGE('',*,*,#457,.T.);
#588=ORIENTED_EDGE('',*,*,#462,.T.);
#589=ORIENTED_EDGE('',*,*,#451,.F.);
#590=ORIENTED_EDGE('',*,*,#443,.F.);
#591=ORIENTED_EDGE('',*,*,#459,.T.);
#592=ORIENTED_EDGE('',*,*,#463,.T.);
#593=ORIENTED_EDGE('',*,*,#452,.F.);
#594=ORIENTED_EDGE('',*,*,#462,.F.);
#595=ORIENTED_EDGE('',*,*,#458,.F.);
#596=ORIENTED_EDGE('',*,*,#461,.T.);
#597=ORIENTED_EDGE('',*,*,#453,.T.);
#598=ORIENTED_EDGE('',*,*,#463,.F.);
#599=ORIENTED_EDGE('',*,*,#445,.T.);
#600=ORIENTED_EDGE('',*,*,#464,.F.);
#601=ORIENTED_EDGE('',*,*,#465,.F.);
#602=ORIENTED_EDGE('',*,*,#466,.T.);
#603=ORIENTED_EDGE('',*,*,#447,.T.);
#604=ORIENTED_EDGE('',*,*,#437,.T.);
#605=ORIENTED_EDGE('',*,*,#467,.T.);
#606=ORIENTED_EDGE('',*,*,#468,.F.);
#607=ORIENTED_EDGE('',*,*,#448,.T.);
#608=ORIENTED_EDGE('',*,*,#469,.F.);
#609=ORIENTED_EDGE('',*,*,#470,.F.);
#610=ORIENTED_EDGE('',*,*,#464,.T.);
#611=ORIENTED_EDGE('',*,*,#440,.T.);
#612=ORIENTED_EDGE('',*,*,#468,.T.);
#613=ORIENTED_EDGE('',*,*,#471,.T.);
#614=ORIENTED_EDGE('',*,*,#460,.T.);
#615=ORIENTED_EDGE('',*,*,#472,.F.);
#616=ORIENTED_EDGE('',*,*,#473,.T.);
#617=ORIENTED_EDGE('',*,*,#469,.T.);
#618=ORIENTED_EDGE('',*,*,#474,.T.);
#619=ORIENTED_EDGE('',*,*,#470,.T.);
#620=ORIENTED_EDGE('',*,*,#475,.F.);
#621=ORIENTED_EDGE('',*,*,#476,.F.);
#622=ORIENTED_EDGE('',*,*,#477,.F.);
#623=ORIENTED_EDGE('',*,*,#478,.T.);
#624=ORIENTED_EDGE('',*,*,#479,.T.);
#625=ORIENTED_EDGE('',*,*,#480,.F.);
#626=ORIENTED_EDGE('',*,*,#466,.F.);
#627=ORIENTED_EDGE('',*,*,#480,.T.);
#628=ORIENTED_EDGE('',*,*,#472,.T.);
#629=ORIENTED_EDGE('',*,*,#454,.F.);
#630=ORIENTED_EDGE('',*,*,#477,.T.);
#631=ORIENTED_EDGE('',*,*,#465,.T.);
#632=ORIENTED_EDGE('',*,*,#474,.F.);
#633=ORIENTED_EDGE('',*,*,#481,.F.);
#634=ORIENTED_EDGE('',*,*,#479,.F.);
#635=ORIENTED_EDGE('',*,*,#482,.T.);
#636=ORIENTED_EDGE('',*,*,#475,.T.);
#637=ORIENTED_EDGE('',*,*,#473,.F.);
#638=ORIENTED_EDGE('',*,*,#478,.F.);
#639=ORIENTED_EDGE('',*,*,#481,.T.);
#640=ORIENTED_EDGE('',*,*,#476,.T.);
#641=ORIENTED_EDGE('',*,*,#482,.F.);
#642=ORIENTED_EDGE('',*,*,#441,.T.);
#643=ORIENTED_EDGE('',*,*,#471,.F.);
#644=ORIENTED_EDGE('',*,*,#467,.F.);
#645=ORIENTED_EDGE('',*,*,#483,.T.);
#646=ORIENTED_EDGE('',*,*,#484,.T.);
#647=ORIENTED_EDGE('',*,*,#485,.T.);
#648=ORIENTED_EDGE('',*,*,#486,.T.);
#649=ORIENTED_EDGE('',*,*,#487,.T.);
#650=ORIENTED_EDGE('',*,*,#488,.F.);
#651=ORIENTED_EDGE('',*,*,#489,.F.);
#652=ORIENTED_EDGE('',*,*,#490,.T.);
#653=ORIENTED_EDGE('',*,*,#491,.T.);
#654=ORIENTED_EDGE('',*,*,#485,.F.);
#655=ORIENTED_EDGE('',*,*,#492,.T.);
#656=ORIENTED_EDGE('',*,*,#493,.T.);
#657=ORIENTED_EDGE('',*,*,#492,.F.);
#658=ORIENTED_EDGE('',*,*,#484,.F.);
#659=ORIENTED_EDGE('',*,*,#494,.T.);
#660=ORIENTED_EDGE('',*,*,#495,.T.);
#661=ORIENTED_EDGE('',*,*,#496,.F.);
#662=ORIENTED_EDGE('',*,*,#487,.F.);
#663=ORIENTED_EDGE('',*,*,#497,.F.);
#664=ORIENTED_EDGE('',*,*,#496,.T.);
#665=ORIENTED_EDGE('',*,*,#498,.T.);
#666=ORIENTED_EDGE('',*,*,#499,.F.);
#667=ORIENTED_EDGE('',*,*,#489,.T.);
#668=ORIENTED_EDGE('',*,*,#500,.T.);
#669=ORIENTED_EDGE('',*,*,#501,.F.);
#670=ORIENTED_EDGE('',*,*,#502,.F.);
#671=ORIENTED_EDGE('',*,*,#503,.T.);
#672=ORIENTED_EDGE('',*,*,#504,.T.);
#673=ORIENTED_EDGE('',*,*,#505,.F.);
#674=ORIENTED_EDGE('',*,*,#500,.F.);
#675=ORIENTED_EDGE('',*,*,#506,.T.);
#676=ORIENTED_EDGE('',*,*,#501,.T.);
#677=ORIENTED_EDGE('',*,*,#507,.T.);
#678=ORIENTED_EDGE('',*,*,#495,.F.);
#679=ORIENTED_EDGE('',*,*,#503,.F.);
#680=ORIENTED_EDGE('',*,*,#488,.T.);
#681=ORIENTED_EDGE('',*,*,#497,.T.);
#682=ORIENTED_EDGE('',*,*,#508,.F.);
#683=ORIENTED_EDGE('',*,*,#504,.F.);
#684=ORIENTED_EDGE('',*,*,#508,.T.);
#685=ORIENTED_EDGE('',*,*,#499,.T.);
#686=ORIENTED_EDGE('',*,*,#509,.F.);
#687=ORIENTED_EDGE('',*,*,#505,.T.);
#688=ORIENTED_EDGE('',*,*,#509,.T.);
#689=ORIENTED_EDGE('',*,*,#498,.F.);
#690=ORIENTED_EDGE('',*,*,#507,.F.);
#691=ORIENTED_EDGE('',*,*,#491,.F.);
#692=ORIENTED_EDGE('',*,*,#493,.F.);
#693=ORIENTED_EDGE('',*,*,#510,.F.);
#694=ORIENTED_EDGE('',*,*,#511,.T.);
#695=ORIENTED_EDGE('',*,*,#512,.T.);
#696=ORIENTED_EDGE('',*,*,#483,.F.);
#697=ORIENTED_EDGE('',*,*,#513,.T.);
#698=ORIENTED_EDGE('',*,*,#514,.F.);
#699=ORIENTED_EDGE('',*,*,#494,.F.);
#700=ORIENTED_EDGE('',*,*,#512,.F.);
#701=ORIENTED_EDGE('',*,*,#515,.T.);
#702=ORIENTED_EDGE('',*,*,#516,.T.);
#703=ORIENTED_EDGE('',*,*,#486,.F.);
#704=ORIENTED_EDGE('',*,*,#517,.F.);
#705=ORIENTED_EDGE('',*,*,#513,.F.);
#706=ORIENTED_EDGE('',*,*,#506,.F.);
#707=ORIENTED_EDGE('',*,*,#516,.F.);
#708=ORIENTED_EDGE('',*,*,#518,.F.);
#709=ORIENTED_EDGE('',*,*,#519,.T.);
#710=ORIENTED_EDGE('',*,*,#520,.F.);
#711=ORIENTED_EDGE('',*,*,#521,.T.);
#712=ORIENTED_EDGE('',*,*,#522,.T.);
#713=ORIENTED_EDGE('',*,*,#515,.F.);
#714=ORIENTED_EDGE('',*,*,#523,.T.);
#715=ORIENTED_EDGE('',*,*,#524,.T.);
#716=ORIENTED_EDGE('',*,*,#525,.F.);
#717=ORIENTED_EDGE('',*,*,#526,.F.);
#718=ORIENTED_EDGE('',*,*,#510,.T.);
#719=ORIENTED_EDGE('',*,*,#502,.T.);
#720=ORIENTED_EDGE('',*,*,#519,.F.);
#721=ORIENTED_EDGE('',*,*,#524,.F.);
#722=ORIENTED_EDGE('',*,*,#523,.F.);
#723=ORIENTED_EDGE('',*,*,#527,.T.);
#724=ORIENTED_EDGE('',*,*,#520,.T.);
#725=ORIENTED_EDGE('',*,*,#511,.F.);
#726=ORIENTED_EDGE('',*,*,#525,.T.);
#727=ORIENTED_EDGE('',*,*,#518,.T.);
#728=ORIENTED_EDGE('',*,*,#522,.F.);
#729=ORIENTED_EDGE('',*,*,#528,.F.);
#730=ORIENTED_EDGE('',*,*,#526,.T.);
#731=ORIENTED_EDGE('',*,*,#528,.T.);
#732=ORIENTED_EDGE('',*,*,#521,.F.);
#733=ORIENTED_EDGE('',*,*,#527,.F.);
#734=ORIENTED_EDGE('',*,*,#490,.F.);
#735=ORIENTED_EDGE('',*,*,#514,.T.);
#736=ORIENTED_EDGE('',*,*,#517,.T.);
#737=ORIENTED_EDGE('',*,*,#529,.F.);
#738=ORIENTED_EDGE('',*,*,#530,.F.);
#739=ORIENTED_EDGE('',*,*,#531,.F.);
#740=ORIENTED_EDGE('',*,*,#532,.F.);
#741=ORIENTED_EDGE('',*,*,#533,.T.);
#742=ORIENTED_EDGE('',*,*,#534,.T.);
#743=ORIENTED_EDGE('',*,*,#535,.T.);
#744=ORIENTED_EDGE('',*,*,#536,.T.);
#745=ORIENTED_EDGE('',*,*,#533,.F.);
#746=ORIENTED_EDGE('',*,*,#537,.T.);
#747=ORIENTED_EDGE('',*,*,#529,.T.);
#748=ORIENTED_EDGE('',*,*,#538,.F.);
#749=ORIENTED_EDGE('',*,*,#534,.F.);
#750=ORIENTED_EDGE('',*,*,#538,.T.);
#751=ORIENTED_EDGE('',*,*,#532,.T.);
#752=ORIENTED_EDGE('',*,*,#539,.F.);
#753=ORIENTED_EDGE('',*,*,#535,.F.);
#754=ORIENTED_EDGE('',*,*,#539,.T.);
#755=ORIENTED_EDGE('',*,*,#531,.T.);
#756=ORIENTED_EDGE('',*,*,#540,.F.);
#757=ORIENTED_EDGE('',*,*,#536,.F.);
#758=ORIENTED_EDGE('',*,*,#540,.T.);
#759=ORIENTED_EDGE('',*,*,#530,.T.);
#760=ORIENTED_EDGE('',*,*,#537,.F.);
#761=ORIENTED_EDGE('',*,*,#541,.F.);
#762=ORIENTED_EDGE('',*,*,#542,.F.);
#763=ORIENTED_EDGE('',*,*,#543,.F.);
#764=ORIENTED_EDGE('',*,*,#544,.F.);
#765=ORIENTED_EDGE('',*,*,#545,.T.);
#766=ORIENTED_EDGE('',*,*,#546,.T.);
#767=ORIENTED_EDGE('',*,*,#547,.T.);
#768=ORIENTED_EDGE('',*,*,#548,.T.);
#769=ORIENTED_EDGE('',*,*,#545,.F.);
#770=ORIENTED_EDGE('',*,*,#549,.T.);
#771=ORIENTED_EDGE('',*,*,#541,.T.);
#772=ORIENTED_EDGE('',*,*,#550,.F.);
#773=ORIENTED_EDGE('',*,*,#546,.F.);
#774=ORIENTED_EDGE('',*,*,#550,.T.);
#775=ORIENTED_EDGE('',*,*,#544,.T.);
#776=ORIENTED_EDGE('',*,*,#551,.F.);
#777=ORIENTED_EDGE('',*,*,#547,.F.);
#778=ORIENTED_EDGE('',*,*,#551,.T.);
#779=ORIENTED_EDGE('',*,*,#543,.T.);
#780=ORIENTED_EDGE('',*,*,#552,.F.);
#781=ORIENTED_EDGE('',*,*,#548,.F.);
#782=ORIENTED_EDGE('',*,*,#552,.T.);
#783=ORIENTED_EDGE('',*,*,#542,.T.);
#784=ORIENTED_EDGE('',*,*,#549,.F.);
#785=PLANE('',#922);
#786=PLANE('',#923);
#787=PLANE('',#924);
#788=PLANE('',#925);
#789=PLANE('',#926);
#790=PLANE('',#927);
#791=PLANE('',#928);
#792=PLANE('',#929);
#793=PLANE('',#930);
#794=PLANE('',#931);
#795=PLANE('',#932);
#796=PLANE('',#933);
#797=PLANE('',#934);
#798=PLANE('',#935);
#799=PLANE('',#936);
#800=PLANE('',#937);
#801=PLANE('',#938);
#802=PLANE('',#939);
#803=PLANE('',#940);
#804=PLANE('',#941);
#805=PLANE('',#942);
#806=PLANE('',#943);
#807=PLANE('',#944);
#808=PLANE('',#945);
#809=PLANE('',#946);
#810=PLANE('',#947);
#811=PLANE('',#948);
#812=PLANE('',#949);
#813=PLANE('',#950);
#814=PLANE('',#951);
#815=PLANE('',#952);
#816=PLANE('',#953);
#817=PLANE('',#954);
#818=PLANE('',#955);
#819=PLANE('',#956);
#820=PLANE('',#957);
#821=PLANE('',#958);
#822=PLANE('',#959);
#823=PLANE('',#960);
#824=PLANE('',#961);
#825=PLANE('',#962);
#826=PLANE('',#963);
#827=PLANE('',#964);
#828=PLANE('',#965);
#829=PLANE('',#966);
#830=PLANE('',#967);
#831=PLANE('',#968);
#832=PLANE('',#969);
#833=PLANE('',#970);
#834=PLANE('',#971);
#835=PLANE('',#972);
#836=PLANE('',#973);
#837=PLANE('',#974);
#838=PLANE('',#975);
#839=PLANE('',#976);
#840=PLANE('',#977);
#841=PLANE('',#978);
#842=PLANE('',#979);
#843=PLANE('',#980);
#844=PLANE('',#981);
#845=ADVANCED_FACE('',(#21),#785,.F.);
#846=ADVANCED_FACE('',(#22),#786,.F.);
#847=ADVANCED_FACE('',(#23),#787,.T.);
#848=ADVANCED_FACE('',(#24),#788,.F.);
#849=ADVANCED_FACE('',(#25),#789,.T.);
#850=ADVANCED_FACE('',(#26),#790,.T.);
#851=ADVANCED_FACE('',(#27),#791,.F.);
#852=ADVANCED_FACE('',(#28),#792,.F.);
#853=ADVANCED_FACE('',(#29),#793,.F.);
#854=ADVANCED_FACE('',(#30),#794,.F.);
#855=ADVANCED_FACE('',(#31),#795,.F.);
#856=ADVANCED_FACE('',(#32),#796,.F.);
#857=ADVANCED_FACE('',(#33),#797,.F.);
#858=ADVANCED_FACE('',(#34),#798,.F.);
#859=ADVANCED_FACE('',(#35),#799,.T.);
#860=ADVANCED_FACE('',(#36),#800,.T.);
#861=ADVANCED_FACE('',(#37),#801,.F.);
#862=ADVANCED_FACE('',(#38),#802,.T.);
#863=ADVANCED_FACE('',(#39),#803,.F.);
#864=ADVANCED_FACE('',(#40),#804,.F.);
#865=ADVANCED_FACE('',(#41),#805,.F.);
#866=ADVANCED_FACE('',(#42),#806,.F.);
#867=ADVANCED_FACE('',(#43),#807,.F.);
#868=ADVANCED_FACE('',(#44),#808,.F.);
#869=ADVANCED_FACE('',(#45),#809,.T.);
#870=ADVANCED_FACE('',(#46),#810,.T.);
#871=ADVANCED_FACE('',(#47),#811,.F.);
#872=ADVANCED_FACE('',(#48),#812,.T.);
#873=ADVANCED_FACE('',(#49),#813,.F.);
#874=ADVANCED_FACE('',(#50),#814,.F.);
#875=ADVANCED_FACE('',(#51),#815,.T.);
#876=ADVANCED_FACE('',(#52),#816,.T.);
#877=ADVANCED_FACE('',(#53),#817,.T.);
#878=ADVANCED_FACE('',(#54),#818,.T.);
#879=ADVANCED_FACE('',(#55),#819,.T.);
#880=ADVANCED_FACE('',(#56),#820,.T.);
#881=ADVANCED_FACE('',(#57),#821,.T.);
#882=ADVANCED_FACE('',(#58),#822,.T.);
#883=ADVANCED_FACE('',(#59),#823,.F.);
#884=ADVANCED_FACE('',(#60),#824,.F.);
#885=ADVANCED_FACE('',(#61),#825,.T.);
#886=ADVANCED_FACE('',(#62),#826,.F.);
#887=ADVANCED_FACE('',(#63),#827,.T.);
#888=ADVANCED_FACE('',(#64),#828,.T.);
#889=ADVANCED_FACE('',(#65),#829,.T.);
#890=ADVANCED_FACE('',(#66),#830,.T.);
#891=ADVANCED_FACE('',(#67),#831,.T.);
#892=ADVANCED_FACE('',(#68),#832,.T.);
#893=ADVANCED_FACE('',(#69),#833,.T.);
#894=ADVANCED_FACE('',(#70),#834,.T.);
#895=ADVANCED_FACE('',(#71),#835,.F.);
#896=ADVANCED_FACE('',(#72),#836,.F.);
#897=ADVANCED_FACE('',(#73),#837,.F.);
#898=ADVANCED_FACE('',(#74),#838,.F.);
#899=ADVANCED_FACE('',(#75),#839,.F.);
#900=ADVANCED_FACE('',(#76),#840,.F.);
#901=ADVANCED_FACE('',(#77),#841,.F.);
#902=ADVANCED_FACE('',(#78),#842,.F.);
#903=ADVANCED_FACE('',(#79),#843,.F.);
#904=ADVANCED_FACE('',(#80),#844,.F.);
#905=CLOSED_SHELL('',(#845,#846,#847,#848,#849,#850,#851,#852,#853,#854,
#855,#856,#857,#858,#859,#860,#861,#862,#863,#864,#865,#866,#867,#868));
#906=CLOSED_SHELL('',(#869,#870,#871,#872,#873,#874,#875,#876,#877,#878,
#879,#880,#881,#882,#883,#884,#885,#886,#887,#888,#889,#890,#891,#892));
#907=CLOSED_SHELL('',(#893,#894,#895,#896,#897,#898));
#908=CLOSED_SHELL('',(#899,#900,#901,#902,#903,#904));
#909=DERIVED_UNIT_ELEMENT(#911,1.);
#910=DERIVED_UNIT_ELEMENT(#1466,-3.);
#911=(
MASS_UNIT()
NAMED_UNIT(*)
SI_UNIT(.KILO.,.GRAM.)
);
#912=DERIVED_UNIT((#909,#910));
#913=MEASURE_REPRESENTATION_ITEM('density measure',
POSITIVE_RATIO_MEASURE(7850.),#912);
#914=PROPERTY_DEFINITION_REPRESENTATION(#919,#916);
#915=PROPERTY_DEFINITION_REPRESENTATION(#920,#917);
#916=REPRESENTATION('material name',(#918),#1463);
#917=REPRESENTATION('density',(#913),#1463);
#918=DESCRIPTIVE_REPRESENTATION_ITEM('Steel','Steel');
#919=PROPERTY_DEFINITION('material property','material name',#1473);
#920=PROPERTY_DEFINITION('material property','density of part',#1473);
#921=AXIS2_PLACEMENT_3D('',#1220,#982,#983);
#922=AXIS2_PLACEMENT_3D('',#1221,#984,#985);
#923=AXIS2_PLACEMENT_3D('',#1228,#989,#990);
#924=AXIS2_PLACEMENT_3D('',#1237,#996,#997);
#925=AXIS2_PLACEMENT_3D('',#1241,#1000,#1001);
#926=AXIS2_PLACEMENT_3D('',#1243,#1003,#1004);
#927=AXIS2_PLACEMENT_3D('',#1249,#1008,#1009);
#928=AXIS2_PLACEMENT_3D('',#1255,#1013,#1014);
#929=AXIS2_PLACEMENT_3D('',#1261,#1018,#1019);
#930=AXIS2_PLACEMENT_3D('',#1267,#1023,#1024);
#931=AXIS2_PLACEMENT_3D('',#1270,#1027,#1028);
#932=AXIS2_PLACEMENT_3D('',#1272,#1030,#1031);
#933=AXIS2_PLACEMENT_3D('',#1274,#1033,#1034);
#934=AXIS2_PLACEMENT_3D('',#1275,#1035,#1036);
#935=AXIS2_PLACEMENT_3D('',#1281,#1040,#1041);
#936=AXIS2_PLACEMENT_3D('',#1285,#1044,#1045);
#937=AXIS2_PLACEMENT_3D('',#1289,#1048,#1049);
#938=AXIS2_PLACEMENT_3D('',#1291,#1051,#1052);
#939=AXIS2_PLACEMENT_3D('',#1295,#1055,#1056);
#940=AXIS2_PLACEMENT_3D('',#1301,#1060,#1061);
#941=AXIS2_PLACEMENT_3D('',#1308,#1066,#1067);
#942=AXIS2_PLACEMENT_3D('',#1309,#1068,#1069);
#943=AXIS2_PLACEMENT_3D('',#1311,#1071,#1072);
#944=AXIS2_PLACEMENT_3D('',#1313,#1074,#1075);
#945=AXIS2_PLACEMENT_3D('',#1314,#1076,#1077);
#946=AXIS2_PLACEMENT_3D('',#1315,#1078,#1079);
#947=AXIS2_PLACEMENT_3D('',#1322,#1083,#1084);
#948=AXIS2_PLACEMENT_3D('',#1331,#1090,#1091);
#949=AXIS2_PLACEMENT_3D('',#1335,#1094,#1095);
#950=AXIS2_PLACEMENT_3D('',#1337,#1097,#1098);
#951=AXIS2_PLACEMENT_3D('',#1343,#1102,#1103);
#952=AXIS2_PLACEMENT_3D('',#1349,#1107,#1108);
#953=AXIS2_PLACEMENT_3D('',#1355,#1112,#1113);
#954=AXIS2_PLACEMENT_3D('',#1361,#1117,#1118);
#955=AXIS2_PLACEMENT_3D('',#1364,#1121,#1122);
#956=AXIS2_PLACEMENT_3D('',#1366,#1124,#1125);
#957=AXIS2_PLACEMENT_3D('',#1368,#1127,#1128);
#958=AXIS2_PLACEMENT_3D('',#1369,#1129,#1130);
#959=AXIS2_PLACEMENT_3D('',#1375,#1134,#1135);
#960=AXIS2_PLACEMENT_3D('',#1379,#1138,#1139);
#961=AXIS2_PLACEMENT_3D('',#1383,#1142,#1143);
#962=AXIS2_PLACEMENT_3D('',#1385,#1145,#1146);
#963=AXIS2_PLACEMENT_3D('',#1389,#1149,#1150);
#964=AXIS2_PLACEMENT_3D('',#1395,#1154,#1155);
#965=AXIS2_PLACEMENT_3D('',#1402,#1160,#1161);
#966=AXIS2_PLACEMENT_3D('',#1403,#1162,#1163);
#967=AXIS2_PLACEMENT_3D('',#1405,#1165,#1166);
#968=AXIS2_PLACEMENT_3D('',#1407,#1168,#1169);
#969=AXIS2_PLACEMENT_3D('',#1408,#1170,#1171);
#970=AXIS2_PLACEMENT_3D('',#1409,#1172,#1173);
#971=AXIS2_PLACEMENT_3D('',#1418,#1178,#1179);
#972=AXIS2_PLACEMENT_3D('',#1427,#1184,#1185);
#973=AXIS2_PLACEMENT_3D('',#1430,#1188,#1189);
#974=AXIS2_PLACEMENT_3D('',#1432,#1191,#1192);
#975=AXIS2_PLACEMENT_3D('',#1434,#1194,#1195);
#976=AXIS2_PLACEMENT_3D('',#1435,#1196,#1197);
#977=AXIS2_PLACEMENT_3D('',#1444,#1202,#1203);
#978=AXIS2_PLACEMENT_3D('',#1453,#1208,#1209);
#979=AXIS2_PLACEMENT_3D('',#1456,#1212,#1213);
#980=AXIS2_PLACEMENT_3D('',#1458,#1215,#1216);
#981=AXIS2_PLACEMENT_3D('',#1460,#1218,#1219);
#982=DIRECTION('axis',(0.,0.,1.));
#983=DIRECTION('refdir',(1.,0.,0.));
#984=DIRECTION('center_axis',(-0.0434974671964855,-0.998106177064836,-0.0434974671964854));
#985=DIRECTION('ref_axis',(0.,0.0435386749292755,-0.999051742296365));
#986=DIRECTION('',(2.5548034780556E-15,-0.0435386749292756,0.999051742296365));
#987=DIRECTION('',(0.707106781186547,0.,-0.707106781186548));
#988=DIRECTION('',(-0.705767646146727,0.0615147080381485,-0.705767646146726));
#989=DIRECTION('center_axis',(-0.0434974671964855,-0.998106177064836,-0.0434974671964854));
#990=DIRECTION('ref_axis',(0.,0.0435386749292755,-0.999051742296365));
#991=DIRECTION('',(-0.708443365737743,0.0615142659522406,-0.703081782317346));
#992=DIRECTION('',(0.704436109669481,0.000232336137838452,-0.709767365700654));
#993=DIRECTION('',(0.707106781186547,0.,-0.707106781186548));
#994=DIRECTION('',(-1.11772652164933E-15,0.0435386749292755,-0.999051742296365));
#995=DIRECTION('',(0.707106781186547,0.,-0.707106781186548));
#996=DIRECTION('center_axis',(-0.705767646146727,0.0615147080381485,-0.705767646146726));
#997=DIRECTION('ref_axis',(-0.707106781186547,0.,0.707106781186548));
#998=DIRECTION('',(0.708443365737742,0.0615142659522409,-0.703081782317346));
#999=DIRECTION('',(0.,-0.996223073231821,-0.0868308030628856));
#1000=DIRECTION('center_axis',(0.708443384931011,0.0612823714907228,-0.703102013431881));
#1001=DIRECTION('ref_axis',(-0.704426003834717,0.,-0.709777433510993));
#1002=DIRECTION('',(-0.704436109669482,0.000232336137838452,-0.709767365700653));
#1003=DIRECTION('center_axis',(-0.705767646146727,0.0615147080381485,-0.705767646146726));
#1004=DIRECTION('ref_axis',(-0.707106781186547,0.,0.707106781186548));
#1005=DIRECTION('',(1.24900984508676E-16,-0.996223073231821,-0.0868308030628855));
#1006=DIRECTION('',(1.0408415375723E-16,-0.996223073231821,-0.0868308030628855));
#1007=DIRECTION('',(0.707106781186548,0.,-0.707106781186547));
#1008=DIRECTION('center_axis',(0.705767646146727,0.0615147080381487,-0.705767646146726));
#1009=DIRECTION('ref_axis',(-0.707106781186547,0.,-0.707106781186548));
#1010=DIRECTION('',(0.707106781186547,0.,0.707106781186548));
#1011=DIRECTION('',(0.,-0.996223073231821,-0.0868308030628856));
#1012=DIRECTION('',(0.707106781186548,0.,0.707106781186547));
#1013=DIRECTION('center_axis',(-0.705767646146727,0.0615147080381485,-0.705767646146726));
#1014=DIRECTION('ref_axis',(-0.707106781186547,0.,0.707106781186548));
#1015=DIRECTION('',(-3.02097753726213E-17,-0.996223073231821,-0.0868308030628857));
#1016=DIRECTION('',(0.707106781186548,0.,-0.707106781186547));
#1017=DIRECTION('',(-3.53929533940736E-17,-0.996223073231821,-0.0868308030628854));
#1018=DIRECTION('center_axis',(0.705767646146727,0.0615147080381487,-0.705767646146726));
#1019=DIRECTION('ref_axis',(-0.707106781186547,0.,-0.707106781186548));
#1020=DIRECTION('',(0.707106781186547,0.,0.707106781186548));
#1021=DIRECTION('',(0.707106781186548,0.,0.707106781186547));
#1022=DIRECTION('',(0.,-0.996223073231821,-0.0868308030628856));
#1023=DIRECTION('center_axis',(0.0434974671964854,0.998106177064836,0.0434974671964855));
#1024=DIRECTION('ref_axis',(0.,-0.0435386749292755,0.999051742296365));
#1025=DIRECTION('',(1.99594021723094E-15,-0.0435386749292756,0.999051742296365));
#1026=DIRECTION('',(-1.2774017390278E-15,0.0435386749292756,-0.999051742296365));
#1027=DIRECTION('center_axis',(0.0434974671964856,-0.998106177064836,-0.0434974671964855));
#1028=DIRECTION('ref_axis',(0.,0.0435386749292756,-0.999051742296365));
#1029=DIRECTION('',(0.705767646146727,0.0615147080381487,-0.705767646146726));
#1030=DIRECTION('center_axis',(-0.708443384931011,0.0612823714907228,-0.703102013431881));
#1031=DIRECTION('ref_axis',(-0.704426003834717,0.,0.709777433510993));
#1032=DIRECTION('',(0.705767646146727,0.0615147080381487,-0.705767646146726));
#1033=DIRECTION('center_axis',(-0.0434974671964855,0.998106177064836,0.0434974671964856));
#1034=DIRECTION('ref_axis',(0.,-0.0435386749292756,0.999051742296365));
#1035=DIRECTION('center_axis',(0.0434974671964856,-0.998106177064836,-0.0434974671964856));
#1036=DIRECTION('ref_axis',(0.,0.0435386749292757,-0.999051742296365));
#1037=DIRECTION('',(0.707106781186548,0.,0.707106781186547));
#1038=DIRECTION('',(0.,0.0435386749292757,-0.999051742296365));
#1039=DIRECTION('',(0.707106781186548,0.,0.707106781186547));
#1040=DIRECTION('center_axis',(0.0434974671964856,-0.998106177064836,-0.0434974671964856));
#1041=DIRECTION('ref_axis',(0.,0.0435386749292757,-0.999051742296365));
#1042=DIRECTION('',(0.705767646146726,0.0615147080381488,-0.705767646146727));
#1043=DIRECTION('',(0.707106781186548,0.,0.707106781186547));
#1044=DIRECTION('center_axis',(0.705767646146726,0.0615147080381488,-0.705767646146727));
#1045=DIRECTION('ref_axis',(-0.707106781186548,0.,-0.707106781186547));
#1046=DIRECTION('',(0.707106781186548,0.,0.707106781186547));
#1047=DIRECTION('',(2.0816830751446E-17,-0.996223073231821,-0.0868308030628856));
#1048=DIRECTION('center_axis',(0.705767646146726,0.0615147080381488,-0.705767646146727));
#1049=DIRECTION('ref_axis',(-0.707106781186548,0.,-0.707106781186547));
#1050=DIRECTION('',(-3.02097753726213E-17,-0.996223073231821,-0.0868308030628857));
#1051=DIRECTION('center_axis',(-0.0434974671964856,0.998106177064836,0.0434974671964856));
#1052=DIRECTION('ref_axis',(0.,-0.0435386749292757,0.999051742296365));
#1053=DIRECTION('',(0.707106781186548,0.,0.707106781186547));
#1054=DIRECTION('',(-1.59675217378475E-16,0.0435386749292757,-0.999051742296365));
#1055=DIRECTION('center_axis',(-0.705767646146726,0.0615147080381487,-0.705767646146727));
#1056=DIRECTION('ref_axis',(-0.707106781186548,0.,0.707106781186547));
#1057=DIRECTION('',(0.707106781186548,0.,-0.707106781186547));
#1058=DIRECTION('',(0.707106781186548,0.,-0.707106781186547));
#1059=DIRECTION('',(0.,-0.996223073231821,-0.0868308030628856));
#1060=DIRECTION('center_axis',(-0.705767646146726,0.0615147080381487,-0.705767646146727));
#1061=DIRECTION('ref_axis',(-0.707106781186548,0.,0.707106781186547));
#1062=DIRECTION('',(0.707106781186548,0.,-0.707106781186547));
#1063=DIRECTION('',(0.,-0.996223073231821,-0.0868308030628856));
#1064=DIRECTION('',(0.707106781186548,0.,-0.707106781186547));
#1065=DIRECTION('',(1.76964766970368E-17,-0.996223073231821,-0.0868308030628857));
#1066=DIRECTION('center_axis',(0.705767646146726,0.0615147080381488,-0.705767646146727));
#1067=DIRECTION('ref_axis',(-0.707106781186548,0.,-0.707106781186547));
#1068=DIRECTION('center_axis',(-0.0434974671964856,-0.998106177064836,-0.0434974671964856));
#1069=DIRECTION('ref_axis',(0.,0.0435386749292757,-0.999051742296365));
#1070=DIRECTION('',(-0.705767646146726,0.0615147080381487,-0.705767646146727));
#1071=DIRECTION('center_axis',(0.0434974671964856,0.998106177064836,0.0434974671964856));
#1072=DIRECTION('ref_axis',(0.,-0.0435386749292757,0.999051742296365));
#1073=DIRECTION('',(-0.705767646146726,0.0615147080381487,-0.705767646146727));
#1074=DIRECTION('center_axis',(0.708443384931012,0.0612823714907227,-0.70310201343188));
#1075=DIRECTION('ref_axis',(-0.704426003834716,0.,-0.709777433510994));
#1076=DIRECTION('center_axis',(-0.708443384931012,0.0612823714907228,-0.70310201343188));
#1077=DIRECTION('ref_axis',(-0.704426003834716,0.,0.709777433510994));
#1078=DIRECTION('center_axis',(0.0434974671964855,0.990580867349649,0.129836495594681));
#1079=DIRECTION('ref_axis',(-1.2234942780886E-16,-0.129959497414367,0.991519303408565));
#1080=DIRECTION('',(2.67715290586446E-15,0.129959497414366,-0.991519303408565));
#1081=DIRECTION('',(-0.705767646146727,-0.0615147080381489,0.705767646146726));
#1082=DIRECTION('',(0.707106781186547,-0.122333502916406,0.696444193072354));
#1083=DIRECTION('center_axis',(0.0434974671964855,0.990580867349649,0.129836495594681));
#1084=DIRECTION('ref_axis',(-1.2234942780886E-16,-0.129959497414367,0.991519303408565));
#1085=DIRECTION('',(-0.708443365737743,-0.0610504737086601,0.703122206449296));
#1086=DIRECTION('',(0.707106781186547,-0.122333502916406,0.696444193072354));
#1087=DIRECTION('',(-1.24007594945819E-15,-0.129959497414367,0.991519303408565));
#1088=DIRECTION('',(0.707106781186547,-0.122333502916406,0.696444193072354));
#1089=DIRECTION('',(0.704436109669481,-0.122564966499746,0.69910485363831));
#1090=DIRECTION('center_axis',(0.705767646146727,0.061514708038149,-0.705767646146726));
#1091=DIRECTION('ref_axis',(-0.707106781186547,0.122333502916406,-0.696444193072354));
#1092=DIRECTION('',(0.708443365737742,-0.06105047370866,0.703122206449297));
#1093=DIRECTION('',(1.07852076885685E-32,-0.996223073231821,-0.0868308030628858));
#1094=DIRECTION('center_axis',(-0.708443384931011,0.0612823714907229,-0.703102013431881));
#1095=DIRECTION('ref_axis',(-0.704426003834717,-0.122795540988468,0.699074574158438));
#1096=DIRECTION('',(-0.704436109669482,-0.122564966499746,0.699104853638309));
#1097=DIRECTION('center_axis',(0.705767646146727,0.061514708038149,-0.705767646146726));
#1098=DIRECTION('ref_axis',(-0.707106781186547,0.122333502916406,-0.696444193072354));
#1099=DIRECTION('',(1.24900984508676E-16,-0.996223073231821,-0.0868308030628859));
#1100=DIRECTION('',(0.707106781186548,-0.122333502916406,0.696444193072354));
#1101=DIRECTION('',(1.0408415375723E-16,-0.996223073231821,-0.0868308030628859));
#1102=DIRECTION('center_axis',(-0.705767646146727,0.0615147080381488,-0.705767646146726));
#1103=DIRECTION('ref_axis',(-0.707106781186547,-0.122333502916406,0.696444193072354));
#1104=DIRECTION('',(0.707106781186547,0.122333502916406,-0.696444193072354));
#1105=DIRECTION('',(0.707106781186548,0.122333502916406,-0.696444193072353));
#1106=DIRECTION('',(1.07852076885685E-32,-0.996223073231821,-0.0868308030628858));
#1107=DIRECTION('center_axis',(0.705767646146727,0.061514708038149,-0.705767646146726));
#1108=DIRECTION('ref_axis',(-0.707106781186547,0.122333502916406,-0.696444193072354));
#1109=DIRECTION('',(-3.53929533940736E-17,-0.996223073231821,-0.086830803062886));
#1110=DIRECTION('',(0.707106781186548,-0.122333502916406,0.696444193072354));
#1111=DIRECTION('',(-3.02097753726213E-17,-0.996223073231821,-0.0868308030628857));
#1112=DIRECTION('center_axis',(-0.705767646146727,0.0615147080381488,-0.705767646146726));
#1113=DIRECTION('ref_axis',(-0.707106781186547,-0.122333502916406,0.696444193072354));
#1114=DIRECTION('',(0.707106781186547,0.122333502916406,-0.696444193072354));
#1115=DIRECTION('',(1.07852076885685E-32,-0.996223073231821,-0.0868308030628858));
#1116=DIRECTION('',(0.707106781186548,0.122333502916406,-0.696444193072353));
#1117=DIRECTION('center_axis',(-0.0434974671964854,-0.990580867349649,-0.129836495594681));
#1118=DIRECTION('ref_axis',(1.2234942780886E-16,0.129959497414367,-0.991519303408565));
#1119=DIRECTION('',(2.1182896450398E-15,0.129959497414366,-0.991519303408565));
#1120=DIRECTION('',(-1.39975116683666E-15,-0.129959497414366,0.991519303408565));
#1121=DIRECTION('center_axis',(-0.0434974671964856,0.990580867349649,0.129836495594681));
#1122=DIRECTION('ref_axis',(-1.2234942780886E-16,-0.129959497414366,0.991519303408565));
#1123=DIRECTION('',(0.705767646146727,-0.0615147080381488,0.705767646146726));
#1124=DIRECTION('center_axis',(0.708443384931011,0.0612823714907229,-0.703102013431881));
#1125=DIRECTION('ref_axis',(-0.704426003834716,0.122795540988468,-0.699074574158438));
#1126=DIRECTION('',(0.705767646146727,-0.0615147080381488,0.705767646146726));
#1127=DIRECTION('center_axis',(0.0434974671964855,-0.990580867349649,-0.129836495594681));
#1128=DIRECTION('ref_axis',(1.2234942780886E-16,0.129959497414366,-0.991519303408565));
#1129=DIRECTION('center_axis',(-0.0434974671964856,0.990580867349649,0.129836495594681));
#1130=DIRECTION('ref_axis',(-1.2234942780886E-16,-0.129959497414366,0.991519303408565));
#1131=DIRECTION('',(0.707106781186548,0.122333502916406,-0.696444193072353));
#1132=DIRECTION('',(-1.2234942780886E-16,-0.129959497414366,0.991519303408565));
#1133=DIRECTION('',(0.707106781186548,0.122333502916406,-0.696444193072353));
#1134=DIRECTION('center_axis',(-0.0434974671964856,0.990580867349649,0.129836495594681));
#1135=DIRECTION('ref_axis',(-1.2234942780886E-16,-0.129959497414366,0.991519303408565));
#1136=DIRECTION('',(0.707106781186548,0.122333502916406,-0.696444193072353));
#1137=DIRECTION('',(0.705767646146726,-0.0615147080381488,0.705767646146727));
#1138=DIRECTION('center_axis',(-0.705767646146726,0.0615147080381488,-0.705767646146727));
#1139=DIRECTION('ref_axis',(-0.707106781186548,-0.122333502916406,0.696444193072353));
#1140=DIRECTION('',(2.0816830751446E-17,-0.996223073231821,-0.0868308030628858));
#1141=DIRECTION('',(0.707106781186548,0.122333502916406,-0.696444193072353));
#1142=DIRECTION('center_axis',(-0.705767646146726,0.0615147080381488,-0.705767646146727));
#1143=DIRECTION('ref_axis',(-0.707106781186548,-0.122333502916406,0.696444193072353));
#1144=DIRECTION('',(-3.02097753726213E-17,-0.996223073231821,-0.0868308030628857));
#1145=DIRECTION('center_axis',(0.0434974671964856,-0.990580867349649,-0.129836495594681));
#1146=DIRECTION('ref_axis',(1.2234942780886E-16,0.129959497414366,-0.991519303408565));
#1147=DIRECTION('',(-2.82024645187335E-16,-0.129959497414366,0.991519303408565));
#1148=DIRECTION('',(0.707106781186548,0.122333502916406,-0.696444193072353));
#1149=DIRECTION('center_axis',(0.705767646146726,0.0615147080381489,-0.705767646146726));
#1150=DIRECTION('ref_axis',(-0.707106781186548,0.122333502916406,-0.696444193072353));
#1151=DIRECTION('',(0.707106781186548,-0.122333502916406,0.696444193072353));
#1152=DIRECTION('',(1.07852076885685E-32,-0.996223073231821,-0.0868308030628858));
#1153=DIRECTION('',(0.707106781186548,-0.122333502916406,0.696444193072353));
#1154=DIRECTION('center_axis',(0.705767646146726,0.0615147080381489,-0.705767646146726));
#1155=DIRECTION('ref_axis',(-0.707106781186548,0.122333502916406,-0.696444193072353));
#1156=DIRECTION('',(0.707106781186548,-0.122333502916406,0.696444193072353));
#1157=DIRECTION('',(1.76964766970368E-17,-0.996223073231821,-0.0868308030628857));
#1158=DIRECTION('',(0.707106781186548,-0.122333502916406,0.696444193072353));
#1159=DIRECTION('',(1.07852076885685E-32,-0.996223073231821,-0.0868308030628858));
#1160=DIRECTION('center_axis',(-0.705767646146726,0.0615147080381488,-0.705767646146727));
#1161=DIRECTION('ref_axis',(-0.707106781186548,-0.122333502916406,0.696444193072353));
#1162=DIRECTION('center_axis',(0.0434974671964856,0.990580867349649,0.129836495594681));
#1163=DIRECTION('ref_axis',(-1.2234942780886E-16,-0.129959497414366,0.991519303408565));
#1164=DIRECTION('',(-0.705767646146726,-0.0615147080381489,0.705767646146726));
#1165=DIRECTION('center_axis',(-0.0434974671964856,-0.990580867349649,-0.129836495594681));
#1166=DIRECTION('ref_axis',(1.2234942780886E-16,0.129959497414366,-0.991519303408565));
#1167=DIRECTION('',(-0.705767646146726,-0.0615147080381489,0.705767646146726));
#1168=DIRECTION('center_axis',(-0.708443384931012,0.0612823714907228,-0.70310201343188));
#1169=DIRECTION('ref_axis',(-0.704426003834716,-0.122795540988468,0.699074574158439));
#1170=DIRECTION('center_axis',(0.708443384931012,0.0612823714907228,-0.70310201343188));
#1171=DIRECTION('ref_axis',(-0.704426003834716,0.122795540988468,-0.699074574158439));
#1172=DIRECTION('center_axis',(0.708443384931013,0.0612823714907226,-0.703102013431879));
#1173=DIRECTION('ref_axis',(-0.704426003834715,0.,-0.709777433510995));
#1174=DIRECTION('',(-0.705767646146726,0.0615147080381487,-0.705767646146727));
#1175=DIRECTION('',(0.,0.996223073231821,0.0868308030628856));
#1176=DIRECTION('',(0.705767646146726,-0.0615147080381487,0.705767646146727));
#1177=DIRECTION('',(0.,-0.996223073231821,-0.0868308030628856));
#1178=DIRECTION('center_axis',(0.708443384931015,-0.0612823714907226,0.703102013431877));
#1179=DIRECTION('ref_axis',(0.704426003834713,0.,-0.709777433510997));
#1180=DIRECTION('',(-0.705767646146726,-0.0615147080381489,0.705767646146726));
#1181=DIRECTION('',(1.07852076885685E-32,-0.996223073231821,-0.0868308030628858));
#1182=DIRECTION('',(0.705767646146726,0.0615147080381489,-0.705767646146726));
#1183=DIRECTION('',(-1.07852076885685E-32,0.996223073231821,0.0868308030628858));
#1184=DIRECTION('center_axis',(3.30997903223967E-15,-0.996223073231821,
-0.0868308030628837));
#1185=DIRECTION('ref_axis',(0.,0.0868308030628837,-0.996223073231821));
#1186=DIRECTION('',(-8.88178419700128E-16,0.0868308030628813,-0.996223073231821));
#1187=DIRECTION('',(0.,0.0868308030628826,-0.996223073231821));
#1188=DIRECTION('center_axis',(1.,0.,0.));
#1189=DIRECTION('ref_axis',(0.,0.,-1.));
#1190=DIRECTION('',(-5.19875828215399E-16,0.0868308030628735,-0.996223073231822));
#1191=DIRECTION('center_axis',(-8.55357670383242E-15,0.996223073231822,
0.0868308030628735));
#1192=DIRECTION('ref_axis',(0.,-0.0868308030628735,0.996223073231822));
#1193=DIRECTION('',(-8.88178419700131E-16,0.0868308030628674,-0.996223073231823));
#1194=DIRECTION('center_axis',(-1.,-7.71212454456867E-17,8.84823834851841E-16));
#1195=DIRECTION('ref_axis',(8.84823834851841E-16,0.,1.));
#1196=DIRECTION('center_axis',(0.708443384931009,-0.061282371490723,0.703102013431882));
#1197=DIRECTION('ref_axis',(0.704426003834718,0.,-0.709777433510991));
#1198=DIRECTION('',(0.705767646146727,0.0615147080381486,-0.705767646146726));
#1199=DIRECTION('',(1.38777878078145E-17,-0.996223073231821,-0.0868308030628856));
#1200=DIRECTION('',(-0.705767646146727,-0.0615147080381486,0.705767646146726));
#1201=DIRECTION('',(-1.38777878078145E-17,0.996223073231821,0.0868308030628856));
#1202=DIRECTION('center_axis',(0.70844338493101,0.061282371490723,-0.703102013431882));
#1203=DIRECTION('ref_axis',(-0.704426003834718,0.,-0.709777433510992));
#1204=DIRECTION('',(0.705767646146727,-0.0615147080381488,0.705767646146726));
#1205=DIRECTION('',(-1.07852076885685E-32,0.996223073231821,0.0868308030628858));
#1206=DIRECTION('',(-0.705767646146727,0.0615147080381488,-0.705767646146726));
#1207=DIRECTION('',(1.07852076885685E-32,-0.996223073231821,-0.0868308030628858));
#1208=DIRECTION('center_axis',(4.39719842239136E-15,0.996223073231822,0.0868308030628776));
#1209=DIRECTION('ref_axis',(0.,-0.0868308030628776,0.996223073231822));
#1210=DIRECTION('',(0.,0.0868308030628674,-0.996223073231823));
#1211=DIRECTION('',(5.19875828215399E-16,0.0868308030628777,-0.996223073231822));
#1212=DIRECTION('center_axis',(-1.,4.51412356569258E-17,-5.17912295283682E-16));
#1213=DIRECTION('ref_axis',(-5.17912295283682E-16,0.,1.));
#1214=DIRECTION('',(0.,0.0868308030628827,-0.996223073231821));
#1215=DIRECTION('center_axis',(-4.4930856938522E-15,-0.996223073231821,
-0.0868308030628827));
#1216=DIRECTION('ref_axis',(0.,0.0868308030628827,-0.996223073231821));
#1217=DIRECTION('',(0.,0.0868308030628795,-0.996223073231822));
#1218=DIRECTION('center_axis',(1.,0.,0.));
#1219=DIRECTION('ref_axis',(0.,0.,-1.));
#1220=CARTESIAN_POINT('',(0.,0.,0.));
#1221=CARTESIAN_POINT('Origin',(12.5,-84.8562291782413,-70.1309210874759));
#1222=CARTESIAN_POINT('',(-9.99200722162641E-15,-84.5486556380505,-64.6885975489432));
#1223=CARTESIAN_POINT('',(-4.44089209850063E-15,-84.8562291782413,-57.6309210874759));
#1224=CARTESIAN_POINT('',(-6.8586629431433E-14,-84.3125118151742,-70.1072258847935));
#1225=CARTESIAN_POINT('',(-3.52883823073363,-84.5486556380505,-61.1597593182096));
#1226=CARTESIAN_POINT('',(-3.52883823073363,-84.5486556380505,-61.1597593182096));
#1227=CARTESIAN_POINT('',(0.,-84.8562291782413,-57.6309210874759));
#1228=CARTESIAN_POINT('Origin',(12.5,-84.8562291782413,-70.1309210874759));
#1229=CARTESIAN_POINT('',(3.52883823073363,-84.8550653017246,-61.1864659844954));
#1230=CARTESIAN_POINT('',(-8.94729296039591,-83.7717605673412,-73.568176334976));
#1231=CARTESIAN_POINT('',(8.93979328038234,-84.8532806680566,-66.6383717837534));
#1232=CARTESIAN_POINT('',(25.,-84.8562291782413,-82.630921087476));
#1233=CARTESIAN_POINT('',(0.,-84.8562291782413,-57.6309210874759));
#1234=CARTESIAN_POINT('',(25.,-84.5486556380505,-89.6885975489432));
#1235=CARTESIAN_POINT('',(25.0000000000001,-85.3999465413084,-70.1546162901584));
#1236=CARTESIAN_POINT('',(-3.52883823073363,-84.5486556380505,-61.1597593182096));
#1237=CARTESIAN_POINT('Origin',(-3.52883823073363,-84.5486556380505,-61.1597593182096));
#1238=CARTESIAN_POINT('',(-3.52883823073363,-84.8550653017246,-61.1864659844954));
#1239=CARTESIAN_POINT('',(-3.55252737349926,-84.8571222342879,-61.162956123972));
#1240=CARTESIAN_POINT('',(-3.52883823073363,-84.5486556380505,-61.1597593182096));
#1241=CARTESIAN_POINT('Origin',(0.,-209.856229178241,-68.5259210874759));
#1242=CARTESIAN_POINT('',(-8.93979328038233,-84.8532806680566,-66.6383717837534));
#1243=CARTESIAN_POINT('Origin',(-3.52883823073363,-84.5486556380505,-61.1597593182096));
#1244=CARTESIAN_POINT('',(-1.11022302462516E-15,-334.548655638051,-86.4785975489432));
#1245=CARTESIAN_POINT('',(-1.30451205393456E-14,-85.3246866942246,-64.7562364157993));
#1246=CARTESIAN_POINT('',(25.,-334.548655638051,-111.478597548943));
#1247=CARTESIAN_POINT('',(25.,-83.1621154572622,-89.5677467067857));
#1248=CARTESIAN_POINT('',(-3.52883823073363,-334.548655638051,-82.9497593182096));
#1249=CARTESIAN_POINT('Origin',(28.5288382307336,-84.5486556380505,-86.1597593182096));
#1250=CARTESIAN_POINT('',(53.5288382307336,-84.5486556380505,-61.1597593182096));
#1251=CARTESIAN_POINT('',(53.5288382307336,-84.5486556380505,-61.1597593182096));
#1252=CARTESIAN_POINT('',(53.5288382307336,-334.548655638051,-82.9497593182096));
#1253=CARTESIAN_POINT('',(53.5288382307336,-84.5486556380505,-61.1597593182096));
#1254=CARTESIAN_POINT('',(28.5288382307336,-334.548655638051,-107.94975931821));
#1255=CARTESIAN_POINT('Origin',(0.,-84.8562291782413,-57.6309210874759));
#1256=CARTESIAN_POINT('',(0.,-334.856229178241,-79.4209210874759));
#1257=CARTESIAN_POINT('',(4.44089209850063E-15,-84.8562291782413,-57.6309210874759));
#1258=CARTESIAN_POINT('',(25.,-334.856229178241,-104.420921087476));
#1259=CARTESIAN_POINT('',(0.,-334.856229178241,-79.4209210874759));
#1260=CARTESIAN_POINT('',(25.,-84.8562291782413,-82.630921087476));
#1261=CARTESIAN_POINT('Origin',(25.,-84.8562291782413,-82.630921087476));
#1262=CARTESIAN_POINT('',(50.,-84.8562291782413,-57.6309210874759));
#1263=CARTESIAN_POINT('',(50.,-84.8562291782413,-57.6309210874759));
#1264=CARTESIAN_POINT('',(50.,-334.856229178241,-79.4209210874759));
#1265=CARTESIAN_POINT('',(25.,-334.856229178241,-104.420921087476));
#1266=CARTESIAN_POINT('',(50.,-84.8562291782413,-57.6309210874759));
#1267=CARTESIAN_POINT('Origin',(12.5,-334.856229178241,-91.9209210874759));
#1268=CARTESIAN_POINT('',(-5.89198828615523E-14,-334.312511815174,-91.8972258847935));
#1269=CARTESIAN_POINT('',(25.,-335.399946541308,-91.9446162901584));
#1270=CARTESIAN_POINT('Origin',(37.5,-84.8562291782413,-70.1309210874759));
#1271=CARTESIAN_POINT('',(50.,-84.8562291782413,-57.6309210874759));
#1272=CARTESIAN_POINT('Origin',(50.,-209.856229178241,-68.5259210874759));
#1273=CARTESIAN_POINT('',(50.,-334.856229178241,-79.4209210874759));
#1274=CARTESIAN_POINT('Origin',(37.5,-334.856229178241,-91.9209210874759));
#1275=CARTESIAN_POINT('Origin',(-12.5,-84.8562291782413,-70.1309210874759));
#1276=CARTESIAN_POINT('',(-25.,-84.5486556380505,-89.6885975489431));
#1277=CARTESIAN_POINT('',(-21.4711617692664,-84.5486556380505,-86.1597593182095));
#1278=CARTESIAN_POINT('',(-25.,-84.8562291782413,-82.6309210874759));
#1279=CARTESIAN_POINT('',(-24.9999999999999,-85.3999465413084,-70.1546162901584));
#1280=CARTESIAN_POINT('',(-25.,-84.8562291782413,-82.6309210874759));
#1281=CARTESIAN_POINT('Origin',(-12.5,-84.8562291782413,-70.1309210874759));
#1282=CARTESIAN_POINT('',(3.52883823073363,-84.5486556380505,-61.1597593182096));
#1283=CARTESIAN_POINT('',(-4.44089209850063E-15,-84.8562291782413,-57.6309210874759));
#1284=CARTESIAN_POINT('',(-21.4711617692664,-84.5486556380505,-86.1597593182095));
#1285=CARTESIAN_POINT('Origin',(-21.4711617692664,-84.5486556380505,-86.1597593182095));
#1286=CARTESIAN_POINT('',(-25.,-334.548655638051,-111.478597548943));
#1287=CARTESIAN_POINT('',(3.52883823073363,-334.548655638051,-82.9497593182096));
#1288=CARTESIAN_POINT('',(-25.,-83.1621154572622,-89.5677467067856));
#1289=CARTESIAN_POINT('Origin',(-21.4711617692664,-84.5486556380505,-86.1597593182095));
#1290=CARTESIAN_POINT('',(3.52883823073363,-84.5486556380505,-61.1597593182095));
#1291=CARTESIAN_POINT('Origin',(-12.5,-334.856229178241,-91.9209210874759));
#1292=CARTESIAN_POINT('',(-25.,-334.856229178241,-104.420921087476));
#1293=CARTESIAN_POINT('',(0.,-334.856229178241,-79.4209210874759));
#1294=CARTESIAN_POINT('',(-24.9999999999999,-335.399946541308,-91.9446162901584));
#1295=CARTESIAN_POINT('Origin',(-53.5288382307336,-84.5486556380505,-61.1597593182096));
#1296=CARTESIAN_POINT('',(-53.5288382307336,-84.5486556380505,-61.1597593182096));
#1297=CARTESIAN_POINT('',(-53.5288382307336,-84.5486556380505,-61.1597593182096));
#1298=CARTESIAN_POINT('',(-53.5288382307336,-334.548655638051,-82.9497593182096));
#1299=CARTESIAN_POINT('',(-28.5288382307336,-334.548655638051,-107.94975931821));
#1300=CARTESIAN_POINT('',(-53.5288382307336,-84.5486556380505,-61.1597593182096));
#1301=CARTESIAN_POINT('Origin',(-50.,-84.8562291782413,-57.6309210874759));
#1302=CARTESIAN_POINT('',(-50.,-84.8562291782413,-57.6309210874759));
#1303=CARTESIAN_POINT('',(-50.,-84.8562291782413,-57.6309210874759));
#1304=CARTESIAN_POINT('',(-50.,-334.856229178241,-79.4209210874759));
#1305=CARTESIAN_POINT('',(-50.,-84.8562291782413,-57.6309210874759));
#1306=CARTESIAN_POINT('',(-25.,-334.856229178241,-104.420921087476));
#1307=CARTESIAN_POINT('',(-25.,-84.8562291782413,-82.6309210874759));
#1308=CARTESIAN_POINT('Origin',(-25.,-84.8562291782413,-82.6309210874759));
#1309=CARTESIAN_POINT('Origin',(-37.5,-84.8562291782413,-70.1309210874759));
#1310=CARTESIAN_POINT('',(-50.,-84.8562291782413,-57.6309210874759));
#1311=CARTESIAN_POINT('Origin',(-37.5,-334.856229178241,-91.9209210874759));
#1312=CARTESIAN_POINT('',(-50.,-334.856229178241,-79.4209210874759));
#1313=CARTESIAN_POINT('Origin',(-50.,-209.856229178241,-68.5259210874759));
#1314=CARTESIAN_POINT('Origin',(6.50353590566538E-16,-209.856229178241,
-68.5259210874759));
#1315=CARTESIAN_POINT('Origin',(12.5,-87.8871084458325,-35.3571800641714));
#1316=CARTESIAN_POINT('',(-1.14686528981782E-14,-86.6426198736751,-40.6642258689919));
#1317=CARTESIAN_POINT('',(-5.0532154980743E-15,-85.7245372088701,-47.6686903551578));
#1318=CARTESIAN_POINT('',(-7.07268704437743E-14,-87.3474904878674,-35.2864517602727));
#1319=CARTESIAN_POINT('',(-3.52883823073363,-86.0321107490608,-44.1398521244241));
#1320=CARTESIAN_POINT('',(-6.12323399573678E-16,-85.7245372088701,-47.6686903551577));
#1321=CARTESIAN_POINT('',(-3.52883823073363,-86.0321107490608,-44.1398521244241));
#1322=CARTESIAN_POINT('Origin',(12.5,-87.8871084458325,-35.3571800641714));
#1323=CARTESIAN_POINT('',(3.52883823073363,-86.3385204127349,-44.1665587907099));
#1324=CARTESIAN_POINT('',(-8.94729296039591,-87.413657475352,-31.7841365459581));
#1325=CARTESIAN_POINT('',(25.,-90.9677623475998,-16.0412052870191));
#1326=CARTESIAN_POINT('',(-3.52883823073363,-86.0321107490608,-44.1398521244241));
#1327=CARTESIAN_POINT('',(25.,-90.0496796827949,-23.045669773185));
#1328=CARTESIAN_POINT('',(25.0000000000001,-88.4267264037976,-35.42790836807));
#1329=CARTESIAN_POINT('',(-6.12323399573678E-16,-85.7245372088701,-47.6686903551577));
#1330=CARTESIAN_POINT('',(8.93979328038234,-87.2799734633217,-38.7965544906706));
#1331=CARTESIAN_POINT('Origin',(-3.52883823073363,-86.0321107490608,-44.1398521244241));
#1332=CARTESIAN_POINT('',(-3.52883823073363,-86.3385204127349,-44.1665587907099));
#1333=CARTESIAN_POINT('',(-3.55252737349926,-86.3364789885964,-44.1900700029476));
#1334=CARTESIAN_POINT('',(-3.52883823073363,-86.0321107490608,-44.1398521244241));
#1335=CARTESIAN_POINT('Origin',(-6.12323399573678E-16,-210.72453720887,
-58.5636903551578));
#1336=CARTESIAN_POINT('',(-8.93979328038233,-87.2799734633217,-38.7965544906706));
#1337=CARTESIAN_POINT('Origin',(-3.52883823073363,-86.0321107490608,-44.1398521244241));
#1338=CARTESIAN_POINT('',(-2.58686870117698E-15,-336.642619873675,-62.4542258689919));
#1339=CARTESIAN_POINT('',(-1.45217662158974E-14,-87.4186509298492,-40.731864735848));
#1340=CARTESIAN_POINT('',(25.,-340.9677623476,-37.8312052870192));
#1341=CARTESIAN_POINT('',(-3.52883823073364,-336.032110749061,-65.9298521244242));
#1342=CARTESIAN_POINT('',(25.,-89.5812221668115,-15.9203544448616));
#1343=CARTESIAN_POINT('Origin',(28.5288382307336,-90.3572532229856,-19.5168315424514));
#1344=CARTESIAN_POINT('',(53.5288382307336,-86.0321107490608,-44.1398521244241));
#1345=CARTESIAN_POINT('',(53.5288382307336,-86.0321107490608,-44.1398521244241));
#1346=CARTESIAN_POINT('',(53.5288382307336,-336.032110749061,-65.9298521244242));
#1347=CARTESIAN_POINT('',(28.5288382307336,-340.357253222986,-41.3068315424515));
#1348=CARTESIAN_POINT('',(53.5288382307336,-86.0321107490608,-44.1398521244241));
#1349=CARTESIAN_POINT('Origin',(-6.12323399573678E-16,-85.7245372088701,
-47.6686903551577));
#1350=CARTESIAN_POINT('',(25.,-340.049679682795,-44.8356697731851));
#1351=CARTESIAN_POINT('',(25.,-90.0496796827949,-23.045669773185));
#1352=CARTESIAN_POINT('',(-6.12323399573676E-16,-335.72453720887,-69.4586903551578));
#1353=CARTESIAN_POINT('',(-6.12323399573676E-16,-335.72453720887,-69.4586903551578));
#1354=CARTESIAN_POINT('',(3.82856869892695E-15,-85.7245372088701,-47.6686903551578));
#1355=CARTESIAN_POINT('Origin',(25.,-90.0496796827949,-23.045669773185));
#1356=CARTESIAN_POINT('',(50.,-85.7245372088701,-47.6686903551577));
#1357=CARTESIAN_POINT('',(50.,-85.7245372088701,-47.6686903551577));
#1358=CARTESIAN_POINT('',(50.,-335.72453720887,-69.4586903551578));
#1359=CARTESIAN_POINT('',(50.,-85.7245372088701,-47.6686903551577));
#1360=CARTESIAN_POINT('',(25.,-340.049679682795,-44.8356697731851));
#1361=CARTESIAN_POINT('Origin',(12.5,-337.887108445832,-57.1471800641715));
#1362=CARTESIAN_POINT('',(-6.10601238738935E-14,-337.347490487867,-57.0764517602727));
#1363=CARTESIAN_POINT('',(25.,-338.426726403798,-57.2179083680702));
#1364=CARTESIAN_POINT('Origin',(37.5,-87.8871084458325,-35.3571800641714));
#1365=CARTESIAN_POINT('',(50.,-85.7245372088701,-47.6686903551577));
#1366=CARTESIAN_POINT('Origin',(50.,-210.72453720887,-58.5636903551578));
#1367=CARTESIAN_POINT('',(50.,-335.72453720887,-69.4586903551578));
#1368=CARTESIAN_POINT('Origin',(37.5,-337.887108445832,-57.1471800641715));
#1369=CARTESIAN_POINT('Origin',(-12.5,-87.8871084458325,-35.3571800641714));
#1370=CARTESIAN_POINT('',(-25.,-90.0496796827949,-23.0456697731851));
#1371=CARTESIAN_POINT('',(-25.,-90.0496796827949,-23.0456697731851));
#1372=CARTESIAN_POINT('',(-25.,-90.9677623475998,-16.0412052870192));
#1373=CARTESIAN_POINT('',(-24.9999999999999,-88.4267264037976,-35.4279083680701));
#1374=CARTESIAN_POINT('',(-21.4711617692664,-90.3572532229856,-19.5168315424514));
#1375=CARTESIAN_POINT('Origin',(-12.5,-87.8871084458325,-35.3571800641714));
#1376=CARTESIAN_POINT('',(3.52883823073363,-86.0321107490608,-44.1398521244241));
#1377=CARTESIAN_POINT('',(-21.4711617692664,-90.3572532229856,-19.5168315424514));
#1378=CARTESIAN_POINT('',(-5.0532154980743E-15,-85.7245372088701,-47.6686903551578));
#1379=CARTESIAN_POINT('Origin',(-21.4711617692664,-90.3572532229856,-19.5168315424514));
#1380=CARTESIAN_POINT('',(-25.,-340.9677623476,-37.8312052870192));
#1381=CARTESIAN_POINT('',(-25.,-89.5812221668115,-15.9203544448617));
#1382=CARTESIAN_POINT('',(3.52883823073363,-336.032110749061,-65.9298521244242));
#1383=CARTESIAN_POINT('Origin',(-21.4711617692664,-90.3572532229856,-19.5168315424514));
#1384=CARTESIAN_POINT('',(3.52883823073363,-86.0321107490608,-44.1398521244241));
#1385=CARTESIAN_POINT('Origin',(-12.5,-337.887108445832,-57.1471800641715));
#1386=CARTESIAN_POINT('',(-25.,-340.049679682795,-44.8356697731851));
#1387=CARTESIAN_POINT('',(-24.9999999999999,-338.426726403798,-57.2179083680702));
#1388=CARTESIAN_POINT('',(-6.12323399573676E-16,-335.72453720887,-69.4586903551578));
#1389=CARTESIAN_POINT('Origin',(-53.5288382307336,-86.0321107490608,-44.1398521244241));
#1390=CARTESIAN_POINT('',(-53.5288382307336,-86.0321107490608,-44.1398521244241));
#1391=CARTESIAN_POINT('',(-53.5288382307336,-86.0321107490608,-44.1398521244241));
#1392=CARTESIAN_POINT('',(-53.5288382307336,-336.032110749061,-65.9298521244242));
#1393=CARTESIAN_POINT('',(-53.5288382307336,-86.0321107490608,-44.1398521244241));
#1394=CARTESIAN_POINT('',(-28.5288382307336,-340.357253222986,-41.3068315424515));
#1395=CARTESIAN_POINT('Origin',(-50.,-85.7245372088701,-47.6686903551578));
#1396=CARTESIAN_POINT('',(-50.,-85.7245372088701,-47.6686903551578));
#1397=CARTESIAN_POINT('',(-50.,-85.7245372088701,-47.6686903551578));
#1398=CARTESIAN_POINT('',(-25.,-90.0496796827949,-23.0456697731851));
#1399=CARTESIAN_POINT('',(-50.,-335.72453720887,-69.4586903551578));
#1400=CARTESIAN_POINT('',(-25.,-340.049679682795,-44.8356697731851));
#1401=CARTESIAN_POINT('',(-50.,-85.7245372088701,-47.6686903551578));
#1402=CARTESIAN_POINT('Origin',(-25.,-90.0496796827949,-23.0456697731851));
#1403=CARTESIAN_POINT('Origin',(-37.5,-87.8871084458325,-35.3571800641714));
#1404=CARTESIAN_POINT('',(-50.,-85.7245372088701,-47.6686903551578));
#1405=CARTESIAN_POINT('Origin',(-37.5,-337.887108445832,-57.1471800641715));
#1406=CARTESIAN_POINT('',(-50.,-335.72453720887,-69.4586903551578));
#1407=CARTESIAN_POINT('Origin',(-50.,-210.72453720887,-58.5636903551578));
#1408=CARTESIAN_POINT('Origin',(3.80301909928624E-17,-210.72453720887,-58.5636903551578));
#1409=CARTESIAN_POINT('Origin',(-51.7644191153668,-209.702442408146,-70.2903402028428));
#1410=CARTESIAN_POINT('',(-50.,-84.8562291782413,-57.6309210874759));
#1411=CARTESIAN_POINT('',(-53.5288382307336,-84.5486556380506,-61.1597593182096));
#1412=CARTESIAN_POINT('',(-50.,-84.8562291782413,-57.6309210874759));
#1413=CARTESIAN_POINT('',(-50.,-334.856229178241,-79.420921087476));
#1414=CARTESIAN_POINT('',(-50.,-84.8562291782413,-57.6309210874759));
#1415=CARTESIAN_POINT('',(-53.5288382307336,-334.548655638051,-82.9497593182096));
#1416=CARTESIAN_POINT('',(-50.,-334.856229178241,-79.420921087476));
#1417=CARTESIAN_POINT('',(-53.5288382307336,-84.5486556380506,-61.1597593182096));
#1418=CARTESIAN_POINT('Origin',(-51.7644191153668,-210.878323978965,-56.7992712397909));
#1419=CARTESIAN_POINT('',(-50.,-85.7245372088701,-47.6686903551578));
#1420=CARTESIAN_POINT('',(-53.5288382307336,-86.0321107490608,-44.1398521244241));
#1421=CARTESIAN_POINT('',(-50.,-85.7245372088701,-47.6686903551578));
#1422=CARTESIAN_POINT('',(-53.5288382307336,-336.032110749061,-65.9298521244242));
#1423=CARTESIAN_POINT('',(-53.5288382307336,-86.0321107490608,-44.1398521244241));
#1424=CARTESIAN_POINT('',(-50.,-335.72453720887,-69.4586903551578));
#1425=CARTESIAN_POINT('',(-50.,-335.72453720887,-69.4586903551578));
#1426=CARTESIAN_POINT('',(-50.,-85.7245372088701,-47.6686903551578));
#1427=CARTESIAN_POINT('Origin',(-50.,-85.7245372088701,-47.6686903551578));
#1428=CARTESIAN_POINT('',(-50.,-85.72453720887,-47.6686903551577));
#1429=CARTESIAN_POINT('',(-53.5288382307336,-86.0321107490608,-44.1398521244241));
#1430=CARTESIAN_POINT('Origin',(-53.5288382307336,-86.0321107490608,-44.1398521244241));
#1431=CARTESIAN_POINT('',(-53.5288382307336,-336.032110749061,-65.9298521244242));
#1432=CARTESIAN_POINT('Origin',(-53.5288382307336,-336.032110749061,-65.9298521244242));
#1433=CARTESIAN_POINT('',(-50.,-335.72453720887,-69.4586903551578));
#1434=CARTESIAN_POINT('Origin',(-50.,-335.72453720887,-69.4586903551578));
#1435=CARTESIAN_POINT('Origin',(51.7644191153668,-209.702442408146,-70.2903402028427));
#1436=CARTESIAN_POINT('',(50.,-334.856229178241,-79.4209210874759));
#1437=CARTESIAN_POINT('',(53.5288382307336,-334.548655638051,-82.9497593182096));
#1438=CARTESIAN_POINT('',(50.,-334.856229178241,-79.420921087476));
#1439=CARTESIAN_POINT('',(50.,-84.8562291782413,-57.6309210874759));
#1440=CARTESIAN_POINT('',(50.,-84.8562291782413,-57.6309210874759));
#1441=CARTESIAN_POINT('',(53.5288382307336,-84.5486556380506,-61.1597593182095));
#1442=CARTESIAN_POINT('',(50.,-84.8562291782413,-57.6309210874759));
#1443=CARTESIAN_POINT('',(53.5288382307336,-84.5486556380506,-61.1597593182096));
#1444=CARTESIAN_POINT('Origin',(51.7644191153668,-210.878323978965,-56.799271239791));
#1445=CARTESIAN_POINT('',(50.,-335.72453720887,-69.4586903551578));
#1446=CARTESIAN_POINT('',(53.5288382307336,-336.032110749061,-65.9298521244242));
#1447=CARTESIAN_POINT('',(50.,-335.72453720887,-69.4586903551578));
#1448=CARTESIAN_POINT('',(53.5288382307336,-86.0321107490609,-44.1398521244241));
#1449=CARTESIAN_POINT('',(53.5288382307336,-86.0321107490608,-44.1398521244241));
#1450=CARTESIAN_POINT('',(50.,-85.7245372088701,-47.6686903551577));
#1451=CARTESIAN_POINT('',(50.,-85.7245372088701,-47.6686903551577));
#1452=CARTESIAN_POINT('',(50.,-85.7245372088701,-47.6686903551577));
#1453=CARTESIAN_POINT('Origin',(50.,-335.72453720887,-69.4586903551578));
#1454=CARTESIAN_POINT('',(50.,-335.72453720887,-69.4586903551578));
#1455=CARTESIAN_POINT('',(53.5288382307336,-336.032110749061,-65.9298521244242));
#1456=CARTESIAN_POINT('Origin',(53.5288382307336,-336.032110749061,-65.9298521244242));
#1457=CARTESIAN_POINT('',(53.5288382307336,-86.0321107490609,-44.1398521244241));
#1458=CARTESIAN_POINT('Origin',(53.5288382307336,-86.0321107490609,-44.1398521244241));
#1459=CARTESIAN_POINT('',(50.,-85.7245372088701,-47.6686903551577));
#1460=CARTESIAN_POINT('Origin',(50.,-85.7245372088701,-47.6686903551577));
#1461=UNCERTAINTY_MEASURE_WITH_UNIT(LENGTH_MEASURE(0.01),#1465,
'DISTANCE_ACCURACY_VALUE',
'Maximum model space distance between geometric entities at asserted c
onnectivities');
#1462=UNCERTAINTY_MEASURE_WITH_UNIT(LENGTH_MEASURE(0.01),#1465,
'DISTANCE_ACCURACY_VALUE',
'Maximum model space distance between geometric entities at asserted c
onnectivities');
#1463=(
GEOMETRIC_REPRESENTATION_CONTEXT(3)
GLOBAL_UNCERTAINTY_ASSIGNED_CONTEXT((#1461))
GLOBAL_UNIT_ASSIGNED_CONTEXT((#1465,#1467,#1468))
REPRESENTATION_CONTEXT('','3D')
);
#1464=(
GEOMETRIC_REPRESENTATION_CONTEXT(3)
GLOBAL_UNCERTAINTY_ASSIGNED_CONTEXT((#1462))
GLOBAL_UNIT_ASSIGNED_CONTEXT((#1465,#1467,#1468))
REPRESENTATION_CONTEXT('','3D')
);
#1465=(
LENGTH_UNIT()
NAMED_UNIT(*)
SI_UNIT(.MILLI.,.METRE.)
);
#1466=(
LENGTH_UNIT()
NAMED_UNIT(*)
SI_UNIT($,.METRE.)
);
#1467=(
NAMED_UNIT(*)
PLANE_ANGLE_UNIT()
SI_UNIT($,.RADIAN.)
);
#1468=(
NAMED_UNIT(*)
SI_UNIT($,.STERADIAN.)
SOLID_ANGLE_UNIT()
);
#1469=SHAPE_DEFINITION_REPRESENTATION(#1470,#1471);
#1470=PRODUCT_DEFINITION_SHAPE('',$,#1473);
#1471=SHAPE_REPRESENTATION('',(#921),#1463);
#1472=PRODUCT_DEFINITION_CONTEXT('part definition',#1477,'design');
#1473=PRODUCT_DEFINITION('Hopper_withMounts','Hopper_withMounts v2',#1474,
#1472);
#1474=PRODUCT_DEFINITION_FORMATION('',$,#1479);
#1475=PRODUCT_RELATED_PRODUCT_CATEGORY('Hopper_withMounts v2',
'Hopper_withMounts v2',(#1479));
#1476=APPLICATION_PROTOCOL_DEFINITION('international standard',
'automotive_design',2009,#1477);
#1477=APPLICATION_CONTEXT(
'Core Data for Automotive Mechanical Design Process');
#1478=PRODUCT_CONTEXT('part definition',#1477,'mechanical');
#1479=PRODUCT('Hopper_withMounts','Hopper_withMounts v2',$,(#1478));
#1480=PRESENTATION_STYLE_ASSIGNMENT((#1482));
#1481=PRESENTATION_STYLE_ASSIGNMENT((#1483));
#1482=SURFACE_STYLE_USAGE(.BOTH.,#1484);
#1483=SURFACE_STYLE_USAGE(.BOTH.,#1485);
#1484=SURFACE_SIDE_STYLE('',(#1486));
#1485=SURFACE_SIDE_STYLE('',(#1487));
#1486=SURFACE_STYLE_FILL_AREA(#1488);
#1487=SURFACE_STYLE_FILL_AREA(#1489);
#1488=FILL_AREA_STYLE('Steel - Satin',(#1490));
#1489=FILL_AREA_STYLE('Aluminum - Satin',(#1491));
#1490=FILL_AREA_STYLE_COLOUR('Steel - Satin',#1492);
#1491=FILL_AREA_STYLE_COLOUR('Aluminum - Satin',#1493);
#1492=COLOUR_RGB('Steel - Satin',0.627450980392157,0.627450980392157,0.627450980392157);
#1493=COLOUR_RGB('Aluminum - Satin',0.96078431372549,0.96078431372549,0.964705882352941);
ENDSEC;
END-ISO-10303-21;
